<?xml version="1.0" encoding="UTF-8" standalone="no"?>
<!-- Created with Inkscape (http://www.inkscape.org/) -->

<svg
   version="1.1"
   id="svg2"
   width="183.61333"
   height="146.89333"
   viewBox="0 0 183.61333 146.89333"
   sodipodi:docname="bbfc-pg-certificate-uk-seeklogo.eps"
   xmlns:inkscape="http://www.inkscape.org/namespaces/inkscape"
   xmlns:sodipodi="http://sodipodi.sourceforge.net/DTD/sodipodi-0.dtd"
   xmlns="http://www.w3.org/2000/svg"
   xmlns:svg="http://www.w3.org/2000/svg">
  <defs
     id="defs6">
    <clipPath
       clipPathUnits="userSpaceOnUse"
       id="clipPath34">
      <path
         d="M 112.508,62.3633 H 1264.63 L 688.563,984.059 Z"
         id="path32" />
    </clipPath>
  </defs>
  <sodipodi:namedview
     id="namedview4"
     pagecolor="#ffffff"
     bordercolor="#000000"
     borderopacity="0.25"
     inkscape:showpageshadow="2"
     inkscape:pageopacity="0.0"
     inkscape:pagecheckerboard="0"
     inkscape:deskcolor="#d1d1d1" />
  <g
     id="g8"
     inkscape:groupmode="layer"
     inkscape:label="ink_ext_XXXXXX"
     transform="matrix(1.3333333,0,0,-1.3333333,0,146.89333)">
    <g
       id="g10"
       transform="scale(0.1)">
      <path
         d="M 1361.8,8.50781 H 15.3398 L 688.563,1085.68 Z"
         style="fill:#ffffff;fill-opacity:1;fill-rule:nonzero;stroke:none"
         id="path12" />
      <path
         d="M 1361.8,8.50781 H 15.3398 L 688.563,1085.68 Z"
         style="fill:none;stroke:#231f20;stroke-width:17.008;stroke-linecap:butt;stroke-linejoin:miter;stroke-miterlimit:10;stroke-dasharray:none;stroke-opacity:1"
         id="path14" />
      <path
         d="m 1155.55,38.8672 c -0.14,-1.6406 -1.43,-2.375 -3.08,-2.375 -2.14,0 -3.54,1.9648 -3.54,4.5547 0,2.7617 1.23,4.4414 3.47,4.4414 1.47,0 2.83,-0.5938 3.15,-2.2735 h 3.33 c -0.6,3.711 -3.2,5.6329 -6.48,5.6329 -4.65,0 -7.52,-3.3204 -7.52,-7.8711 0,-4.4141 3.01,-7.8399 7.59,-7.8399 3.18,0 6.03,1.9922 6.54,5.7305 z m -17.19,2.1094 c 0,-7.5586 6.17,-13.7188 13.73,-13.7188 7.56,0 13.71,6.1602 13.71,13.7188 0,7.5586 -6.15,13.7109 -13.71,13.7109 -7.56,0 -13.73,-6.1523 -13.73,-13.7109 z m 13.73,-10.1563 c -5.57,0 -9.45,3.8867 -9.45,10.1563 0,6.2695 3.88,10.1484 9.45,10.1484 5.57,0 9.44,-3.8789 9.44,-10.1484 0,-6.2696 -3.87,-10.1563 -9.44,-10.1563"
         style="fill:#fcd213;fill-opacity:1;fill-rule:nonzero;stroke:none"
         id="path16" />
      <path
         d="m 1167.73,32.5781 10.61,8.6133 c 1.15,0.9375 3.36,3.1445 3.36,4.9609 0,2.0313 -1.37,3.293 -3.36,3.293 -2.64,0 -4.45,-2.2383 -5.21,-4.5508 l -5.47,2.8008 c 1.36,3.457 5.07,6.7891 11.21,6.7891 8.14,0 10.46,-4.7188 10.46,-7.9102 0,-3.332 -2.06,-5.707 -4.8,-7.5312 l -7.21,-4.9219 V 34.043 h 11.98 v -6.3008 h -21.57 v 4.8359"
         style="fill:#fcd213;fill-opacity:1;fill-rule:nonzero;stroke:none"
         id="path18" />
      <path
         d="m 1207.77,40.8672 c 0,-7.0977 -1.5,-8.5703 -3.79,-8.5703 -2.26,0 -3.77,1.4726 -3.77,8.5703 0,7.1016 1.51,8.5781 3.77,8.5781 2.29,0 3.79,-1.4765 3.79,-8.5781 z m -15.33,0 c 0,-8.6406 4.94,-13.6094 11.54,-13.6094 6.63,0 11.56,4.9688 11.56,13.6094 0,5.5 -2.83,13.6172 -11.56,13.6172 -8.71,0 -11.54,-8.1172 -11.54,-13.6172"
         style="fill:#fcd213;fill-opacity:1;fill-rule:nonzero;stroke:none"
         id="path20" />
      <path
         d="m 1229.26,54.4844 c 8.71,0 11.55,-8.1172 11.55,-13.6172 0,-8.6406 -4.93,-13.6094 -11.55,-13.6094 -6.62,0 -11.55,4.9688 -11.55,13.6094 0,5.5 2.84,13.6172 11.55,13.6172 z m 0,-5.0391 c -2.28,0 -3.78,-1.4765 -3.78,-8.5781 0,-7.0977 1.5,-8.5703 3.78,-8.5703 2.27,0 3.78,1.4726 3.78,8.5703 0,7.1016 -1.51,8.5781 -3.78,8.5781"
         style="fill:#fcd213;fill-opacity:1;fill-rule:nonzero;stroke:none"
         id="path22" />
      <path
         d="m 1243.54,32.5781 10.6,8.6133 c 1.15,0.9375 3.36,3.1445 3.36,4.9609 0,2.0313 -1.37,3.293 -3.36,3.293 -2.62,0 -4.44,-2.2383 -5.21,-4.5508 l -5.47,2.8008 c 1.38,3.457 5.09,6.7891 11.21,6.7891 8.15,0 10.47,-4.7188 10.47,-7.9102 0,-3.332 -2.07,-5.707 -4.81,-7.5312 l -7.2,-4.9219 V 34.043 h 11.97 v -6.3008 h -21.56 v 4.8359"
         style="fill:#fcd213;fill-opacity:1;fill-rule:nonzero;stroke:none"
         id="path24" />
      <path
         d="M 112.508,62.3633 H 1264.63 L 688.563,984.059 Z"
         style="fill:#fcd213;fill-opacity:1;fill-rule:nonzero;stroke:none"
         id="path26" />
      <g
         id="g28">
        <g
           id="g30"
           clip-path="url(#clipPath34)">
          <path
             d="m 582.391,183.828 h 25.785 v -38.047 h 0.308 c 3.672,3.828 10.356,6.524 15.606,6.524 17.836,0 27.383,-17.813 27.383,-40.899 0,-18.3005 -7.633,-41.8357 -29.297,-41.8357 -10.02,0 -16.543,4.7656 -21.637,12.4024 L 595.77,70.5273 h -13.379 z m 25.785,-87.6952 c -0.469,-6.6797 3.512,-10.332 8.433,-10.332 7.168,0 8.125,7.1484 8.125,21.9532 v 6.055 c 0,15.918 0,24.179 -7.968,24.179 -3.164,0 -5.563,-1.914 -7.145,-3.183 l -1.445,-1.426 V 96.1328"
             style="fill:#fde36d;fill-opacity:1;fill-rule:nonzero;stroke:none"
             id="path36" />
          <path
             d="m 636.688,183.828 h 25.781 v -38.047 h 0.312 c 3.653,3.828 10.352,6.524 15.606,6.524 17.816,0 27.367,-17.813 27.367,-40.899 0,-18.3005 -7.641,-41.8357 -29.281,-41.8357 -10.039,0 -16.559,4.7656 -21.66,12.4024 l -4.762,-11.4454 h -13.363 z m 25.781,-87.6952 c -0.489,-6.6797 3.496,-10.332 8.437,-10.332 7.149,0 8.106,7.1484 8.106,21.9532 v 6.055 c 0,15.918 0,24.179 -7.949,24.179 -3.18,0 -5.563,-1.914 -7.168,-3.183 l -1.426,-1.426 V 96.1328"
             style="fill:#fee784;fill-opacity:1;fill-rule:nonzero;stroke:none"
             id="path38" />
          <path
             d="m 691.688,132.266 h -10.485 v 18.144 h 10.485 v 8.906 c 0,19.571 9.707,26.739 26.738,26.739 5.097,0 8.926,-0.489 13.07,-0.957 v -19.727 c -1.445,0.313 -3.363,0.625 -4.785,0.625 -6.527,0 -9.242,-2.051 -9.242,-6.836 v -8.75 h 14.027 V 132.266 H 717.469 V 70.5273 h -25.781 v 61.7387"
             style="fill:#feec9c;fill-opacity:1;fill-rule:nonzero;stroke:none"
             id="path40" />
          <path
             d="m 758.078,120.645 c 0,3.183 -0.18,6.992 -1.273,10.019 -1.289,3.203 -3.34,5.41 -7.477,5.41 -8.613,0 -9.555,-10.488 -9.555,-26.406 0,-17.9883 2.856,-23.8672 9.555,-23.8672 9.059,0 9.86,9.2187 9.86,15.2732 l 20.039,-2.8709 c -1.891,-19.414 -13.047,-29.6093 -31.813,-29.6093 -23.242,0 -35.332,20.371 -35.332,40.1172 0,21.797 12.09,43.594 36.441,43.594 27.383,0 31.504,-23.692 31.504,-31.66 h -21.949"
             style="fill:#fef0b4;fill-opacity:1;fill-rule:nonzero;stroke:none"
             id="path42" />
          <path
             d="m 769.051,120.586 c 5.707,0 10.375,-4.668 10.375,-10.391 0,-5.703 -4.668,-10.3903 -10.375,-10.3903 -5.742,0 -10.387,4.6873 -10.387,10.3903 0,5.723 4.645,10.391 10.387,10.391"
             style="fill:#fef5cc;fill-opacity:1;fill-rule:nonzero;stroke:none"
             id="path44" />
          <path
             d="m 582.391,314.414 h 25.785 v -38.027 h 0.308 c 3.672,3.828 10.356,6.523 15.606,6.523 17.836,0 27.383,-17.832 27.383,-40.898 0,-18.301 -7.633,-41.856 -29.297,-41.856 -10.02,0 -16.543,4.766 -21.637,12.422 l -4.769,-11.484 h -13.379 z m 25.785,-87.676 c -0.469,-6.699 3.512,-10.371 8.433,-10.371 7.168,0 8.125,7.188 8.125,21.973 v 6.055 c 0,15.898 0,24.179 -7.968,24.179 -3.164,0 -5.563,-1.894 -7.145,-3.183 l -1.445,-1.426 v -37.227"
             style="fill:#fde36d;fill-opacity:1;fill-rule:nonzero;stroke:none"
             id="path46" />
          <path
             d="m 636.688,314.414 h 25.781 v -38.027 h 0.312 c 3.653,3.828 10.352,6.523 15.606,6.523 17.816,0 27.367,-17.832 27.367,-40.898 0,-18.301 -7.641,-41.856 -29.281,-41.856 -10.039,0 -16.559,4.766 -21.66,12.422 l -4.762,-11.484 h -13.363 z m 25.781,-87.676 c -0.489,-6.699 3.496,-10.371 8.437,-10.371 7.149,0 8.106,7.188 8.106,21.973 v 6.055 c 0,15.898 0,24.179 -7.949,24.179 -3.18,0 -5.563,-1.894 -7.168,-3.183 l -1.426,-1.426 v -37.227"
             style="fill:#fee784;fill-opacity:1;fill-rule:nonzero;stroke:none"
             id="path48" />
          <path
             d="m 691.688,262.852 h -10.485 v 18.144 h 10.485 v 8.906 c 0,19.571 9.707,26.739 26.738,26.739 5.097,0 8.926,-0.469 13.07,-0.938 v -19.746 c -1.445,0.332 -3.363,0.645 -4.785,0.645 -6.527,0 -9.242,-2.09 -9.242,-6.856 v -8.75 h 14.027 v -18.144 h -14.027 v -61.758 h -25.781 v 61.758"
             style="fill:#feec9c;fill-opacity:1;fill-rule:nonzero;stroke:none"
             id="path50" />
          <path
             d="m 758.078,251.25 c 0,3.164 -0.18,6.992 -1.273,10.02 -1.289,3.164 -3.34,5.41 -7.477,5.41 -8.613,0 -9.555,-10.508 -9.555,-26.426 0,-17.969 2.856,-23.887 9.555,-23.887 9.059,0 9.86,9.238 9.86,15.313 l 20.039,-2.871 c -1.891,-19.434 -13.047,-29.61 -31.813,-29.61 -23.242,0 -35.332,20.371 -35.332,40.098 0,21.816 12.09,43.613 36.441,43.613 27.383,0 31.504,-23.711 31.504,-31.66 h -21.949"
             style="fill:#fef0b4;fill-opacity:1;fill-rule:nonzero;stroke:none"
             id="path52" />
          <path
             d="m 769.051,251.191 c 5.707,0 10.375,-4.668 10.375,-10.41 0,-5.703 -4.668,-10.39 -10.375,-10.39 -5.742,0 -10.387,4.687 -10.387,10.39 0,5.742 4.645,10.41 10.387,10.41"
             style="fill:#fef5cc;fill-opacity:1;fill-rule:nonzero;stroke:none"
             id="path54" />
          <path
             d="m 582.391,444.98 h 25.785 v -38.027 h 0.308 c 3.672,3.809 10.356,6.524 15.606,6.524 17.836,0 27.383,-17.813 27.383,-40.899 0,-18.281 -7.633,-41.836 -29.297,-41.836 -10.02,0 -16.543,4.766 -21.637,12.403 l -4.769,-11.446 h -13.379 z m 25.785,-87.675 c -0.469,-6.68 3.512,-10.332 8.433,-10.332 7.168,0 8.125,7.168 8.125,21.953 v 6.054 c 0,15.918 0,24.18 -7.968,24.18 -3.164,0 -5.563,-1.914 -7.145,-3.183 l -1.445,-1.426 v -37.246"
             style="fill:#fde36d;fill-opacity:1;fill-rule:nonzero;stroke:none"
             id="path56" />
          <path
             d="m 636.688,444.98 h 25.781 v -38.027 h 0.312 c 3.653,3.809 10.352,6.524 15.606,6.524 17.816,0 27.367,-17.813 27.367,-40.899 0,-18.281 -7.641,-41.836 -29.281,-41.836 -10.039,0 -16.559,4.766 -21.66,12.403 l -4.762,-11.446 h -13.363 z m 25.781,-87.675 c -0.489,-6.68 3.496,-10.332 8.437,-10.332 7.149,0 8.106,7.168 8.106,21.953 v 6.054 c 0,15.918 0,24.18 -7.949,24.18 -3.18,0 -5.563,-1.914 -7.168,-3.183 l -1.426,-1.426 v -37.246"
             style="fill:#fee784;fill-opacity:1;fill-rule:nonzero;stroke:none"
             id="path58" />
          <path
             d="m 691.688,393.438 h -10.485 v 18.125 h 10.485 v 8.906 c 0,19.57 9.707,26.738 26.738,26.738 5.097,0 8.926,-0.469 13.07,-0.937 v -19.747 c -1.445,0.332 -3.363,0.645 -4.785,0.645 -6.527,0 -9.242,-2.07 -9.242,-6.855 v -8.75 h 14.027 v -18.125 h -14.027 v -61.739 h -25.781 v 61.739"
             style="fill:#feec9c;fill-opacity:1;fill-rule:nonzero;stroke:none"
             id="path60" />
          <path
             d="m 758.078,381.816 c 0,3.184 -0.18,7.012 -1.273,10.02 -1.289,3.184 -3.34,5.41 -7.477,5.41 -8.613,0 -9.555,-10.488 -9.555,-26.406 0,-17.988 2.856,-23.867 9.555,-23.867 9.059,0 9.86,9.218 9.86,15.273 l 20.039,-2.851 c -1.891,-19.434 -13.047,-29.61 -31.813,-29.61 -23.242,0 -35.332,20.371 -35.332,40.098 0,21.797 12.09,43.594 36.441,43.594 27.383,0 31.504,-23.692 31.504,-31.661 h -21.949"
             style="fill:#fef0b4;fill-opacity:1;fill-rule:nonzero;stroke:none"
             id="path62" />
          <path
             d="m 769.051,381.758 c 5.707,0 10.375,-4.668 10.375,-10.391 0,-5.703 -4.668,-10.39 -10.375,-10.39 -5.742,0 -10.387,4.687 -10.387,10.39 0,5.723 4.645,10.391 10.387,10.391"
             style="fill:#fef5cc;fill-opacity:1;fill-rule:nonzero;stroke:none"
             id="path64" />
          <path
             d="m 353.215,183.828 h 25.781 v -38.047 h 0.309 c 3.672,3.828 10.351,6.524 15.609,6.524 17.809,0 27.359,-17.813 27.359,-40.899 0,-18.3005 -7.636,-41.8357 -29.273,-41.8357 -10.023,0 -16.566,4.7656 -21.645,12.4024 L 366.57,70.5273 h -13.355 z m 25.781,-87.6952 c -0.488,-6.6797 3.492,-10.332 8.434,-10.332 7.152,0 8.109,7.1484 8.109,21.9532 v 6.055 c 0,15.918 0,24.179 -7.949,24.179 -3.188,0 -5.57,-1.914 -7.168,-3.183 l -1.426,-1.426 V 96.1328"
             style="fill:#fde36d;fill-opacity:1;fill-rule:nonzero;stroke:none"
             id="path66" />
          <path
             d="m 407.488,183.828 h 25.805 v -38.047 h 0.309 c 3.656,3.828 10.332,6.524 15.586,6.524 17.832,0 27.363,-17.813 27.363,-40.899 0,-18.3005 -7.633,-41.8357 -29.278,-41.8357 -10.015,0 -16.543,4.7656 -21.64,12.4024 l -4.785,-11.4454 h -13.36 z m 25.805,-87.6952 c -0.492,-6.6797 3.496,-10.332 8.418,-10.332 7.168,0 8.125,7.1484 8.125,21.9532 v 6.055 c 0,15.918 0,24.179 -7.973,24.179 -3.183,0 -5.562,-1.914 -7.148,-3.183 l -1.422,-1.426 V 96.1328"
             style="fill:#fee784;fill-opacity:1;fill-rule:nonzero;stroke:none"
             id="path68" />
          <path
             d="m 462.508,132.266 h -10.504 v 18.144 h 10.504 v 8.906 c 0,19.571 9.707,26.739 26.742,26.739 5.078,0 8.902,-0.489 13.047,-0.957 v -19.727 c -1.426,0.313 -3.34,0.625 -4.77,0.625 -6.543,0 -9.234,-2.051 -9.234,-6.836 v -8.75 h 14.004 V 132.266 H 488.293 V 70.5273 h -25.785 v 61.7387"
             style="fill:#feec9c;fill-opacity:1;fill-rule:nonzero;stroke:none"
             id="path70" />
          <path
             d="m 528.895,120.645 c 0,3.183 -0.176,6.992 -1.29,10.019 -1.265,3.203 -3.339,5.41 -7.476,5.41 -8.598,0 -9.551,-10.488 -9.551,-26.406 0,-17.9883 2.867,-23.8672 9.551,-23.8672 9.082,0 9.859,9.2187 9.859,15.2732 l 20.063,-2.8709 c -1.918,-19.414 -13.047,-29.6093 -31.836,-29.6093 -23.227,0 -35.317,20.371 -35.317,40.1172 0,21.797 12.09,43.594 36.446,43.594 27.367,0 31.504,-23.692 31.504,-31.66 h -21.953"
             style="fill:#fef0b4;fill-opacity:1;fill-rule:nonzero;stroke:none"
             id="path72" />
          <path
             d="m 539.852,120.586 c 5.726,0 10.394,-4.668 10.394,-10.391 0,-5.703 -4.668,-10.3903 -10.394,-10.3903 -5.719,0 -10.372,4.6873 -10.372,10.3903 0,5.723 4.653,10.391 10.372,10.391"
             style="fill:#fef5cc;fill-opacity:1;fill-rule:nonzero;stroke:none"
             id="path74" />
          <path
             d="m 353.215,314.414 h 25.781 v -38.027 h 0.309 c 3.672,3.828 10.351,6.523 15.609,6.523 17.809,0 27.359,-17.832 27.359,-40.898 0,-18.301 -7.636,-41.856 -29.273,-41.856 -10.023,0 -16.566,4.766 -21.645,12.422 l -4.785,-11.484 h -13.355 z m 25.781,-87.676 c -0.488,-6.699 3.492,-10.371 8.434,-10.371 7.152,0 8.109,7.188 8.109,21.973 v 6.055 c 0,15.898 0,24.179 -7.949,24.179 -3.188,0 -5.57,-1.894 -7.168,-3.183 l -1.426,-1.426 v -37.227"
             style="fill:#fde36d;fill-opacity:1;fill-rule:nonzero;stroke:none"
             id="path76" />
          <path
             d="m 407.488,314.414 h 25.805 v -38.027 h 0.309 c 3.656,3.828 10.332,6.523 15.586,6.523 17.832,0 27.363,-17.832 27.363,-40.898 0,-18.301 -7.633,-41.856 -29.278,-41.856 -10.015,0 -16.543,4.766 -21.64,12.422 l -4.785,-11.484 h -13.36 z m 25.805,-87.676 c -0.492,-6.699 3.496,-10.371 8.418,-10.371 7.168,0 8.125,7.188 8.125,21.973 v 6.055 c 0,15.898 0,24.179 -7.973,24.179 -3.183,0 -5.562,-1.894 -7.148,-3.183 l -1.422,-1.426 v -37.227"
             style="fill:#fee784;fill-opacity:1;fill-rule:nonzero;stroke:none"
             id="path78" />
          <path
             d="m 462.508,262.852 h -10.504 v 18.144 h 10.504 v 8.906 c 0,19.571 9.707,26.739 26.742,26.739 5.078,0 8.902,-0.469 13.047,-0.938 v -19.746 c -1.426,0.332 -3.34,0.645 -4.77,0.645 -6.543,0 -9.234,-2.09 -9.234,-6.856 v -8.75 h 14.004 v -18.144 h -14.004 v -61.758 h -25.785 v 61.758"
             style="fill:#feec9c;fill-opacity:1;fill-rule:nonzero;stroke:none"
             id="path80" />
          <path
             d="m 528.895,251.25 c 0,3.164 -0.176,6.992 -1.29,10.02 -1.265,3.164 -3.339,5.41 -7.476,5.41 -8.598,0 -9.551,-10.508 -9.551,-26.426 0,-17.969 2.867,-23.887 9.551,-23.887 9.082,0 9.859,9.238 9.859,15.313 l 20.063,-2.871 c -1.918,-19.434 -13.047,-29.61 -31.836,-29.61 -23.227,0 -35.317,20.371 -35.317,40.098 0,21.816 12.09,43.613 36.446,43.613 27.367,0 31.504,-23.711 31.504,-31.66 h -21.953"
             style="fill:#fef0b4;fill-opacity:1;fill-rule:nonzero;stroke:none"
             id="path82" />
          <path
             d="m 539.852,251.191 c 5.726,0 10.394,-4.668 10.394,-10.41 0,-5.703 -4.668,-10.39 -10.394,-10.39 -5.719,0 -10.372,4.687 -10.372,10.39 0,5.742 4.653,10.41 10.372,10.41"
             style="fill:#fef5cc;fill-opacity:1;fill-rule:nonzero;stroke:none"
             id="path84" />
          <path
             d="m 353.215,444.98 h 25.781 v -38.027 h 0.309 c 3.672,3.809 10.351,6.524 15.609,6.524 17.809,0 27.359,-17.813 27.359,-40.899 0,-18.281 -7.636,-41.836 -29.273,-41.836 -10.023,0 -16.566,4.766 -21.645,12.403 l -4.785,-11.446 h -13.355 z m 25.781,-87.675 c -0.488,-6.68 3.492,-10.332 8.434,-10.332 7.152,0 8.109,7.168 8.109,21.953 v 6.054 c 0,15.918 0,24.18 -7.949,24.18 -3.188,0 -5.57,-1.914 -7.168,-3.183 l -1.426,-1.426 v -37.246"
             style="fill:#fde36d;fill-opacity:1;fill-rule:nonzero;stroke:none"
             id="path86" />
          <path
             d="m 407.488,444.98 h 25.805 v -38.027 h 0.309 c 3.656,3.809 10.332,6.524 15.586,6.524 17.832,0 27.363,-17.813 27.363,-40.899 0,-18.281 -7.633,-41.836 -29.278,-41.836 -10.015,0 -16.543,4.766 -21.64,12.403 l -4.785,-11.446 h -13.36 z m 25.805,-87.675 c -0.492,-6.68 3.496,-10.332 8.418,-10.332 7.168,0 8.125,7.168 8.125,21.953 v 6.054 c 0,15.918 0,24.18 -7.973,24.18 -3.183,0 -5.562,-1.914 -7.148,-3.183 l -1.422,-1.426 v -37.246"
             style="fill:#fee784;fill-opacity:1;fill-rule:nonzero;stroke:none"
             id="path88" />
          <path
             d="m 462.508,393.438 h -10.504 v 18.125 h 10.504 v 8.906 c 0,19.57 9.707,26.738 26.742,26.738 5.078,0 8.902,-0.469 13.047,-0.937 v -19.747 c -1.426,0.332 -3.34,0.645 -4.77,0.645 -6.543,0 -9.234,-2.07 -9.234,-6.855 v -8.75 h 14.004 v -18.125 h -14.004 v -61.739 h -25.785 v 61.739"
             style="fill:#feec9c;fill-opacity:1;fill-rule:nonzero;stroke:none"
             id="path90" />
          <path
             d="m 528.895,381.816 c 0,3.184 -0.176,7.012 -1.29,10.02 -1.265,3.184 -3.339,5.41 -7.476,5.41 -8.598,0 -9.551,-10.488 -9.551,-26.406 0,-17.988 2.867,-23.867 9.551,-23.867 9.082,0 9.859,9.218 9.859,15.273 l 20.063,-2.851 c -1.918,-19.434 -13.047,-29.61 -31.836,-29.61 -23.227,0 -35.317,20.371 -35.317,40.098 0,21.797 12.09,43.594 36.446,43.594 27.367,0 31.504,-23.692 31.504,-31.661 h -21.953"
             style="fill:#fef0b4;fill-opacity:1;fill-rule:nonzero;stroke:none"
             id="path92" />
          <path
             d="m 539.852,381.758 c 5.726,0 10.394,-4.668 10.394,-10.391 0,-5.703 -4.668,-10.39 -10.394,-10.39 -5.719,0 -10.372,4.687 -10.372,10.39 0,5.723 4.653,10.391 10.372,10.391"
             style="fill:#fef5cc;fill-opacity:1;fill-rule:nonzero;stroke:none"
             id="path94" />
          <path
             d="m 124.012,183.828 h 25.785 v -38.047 h 0.308 c 3.672,3.828 10.356,6.524 15.61,6.524 17.832,0 27.379,-17.813 27.379,-40.899 0,-18.3005 -7.633,-41.8357 -29.293,-41.8357 -10.024,0 -16.543,4.7656 -21.645,12.4024 l -4.765,-11.4454 h -13.379 z m 25.785,-87.6952 c -0.469,-6.6797 3.512,-10.332 8.433,-10.332 7.153,0 8.125,7.1484 8.125,21.9532 v 6.055 c 0,15.918 0,24.179 -7.968,24.179 -3.18,0 -5.567,-1.914 -7.149,-3.183 l -1.441,-1.426 V 96.1328"
             style="fill:#fde36d;fill-opacity:1;fill-rule:nonzero;stroke:none"
             id="path96" />
          <path
             d="m 178.309,183.828 h 25.781 v -38.047 h 0.312 c 3.653,3.828 10.356,6.524 15.606,6.524 17.812,0 27.367,-17.813 27.367,-40.899 0,-18.3005 -7.641,-41.8357 -29.281,-41.8357 -10.039,0 -16.563,4.7656 -21.66,12.4024 L 191.672,70.5273 H 178.309 Z M 204.09,96.1328 c -0.488,-6.6797 3.5,-10.332 8.437,-10.332 7.149,0 8.106,7.1484 8.106,21.9532 v 6.055 c 0,15.918 0,24.179 -7.949,24.179 -3.204,0 -5.586,-1.914 -7.168,-3.183 l -1.426,-1.426 V 96.1328"
             style="fill:#fee784;fill-opacity:1;fill-rule:nonzero;stroke:none"
             id="path98" />
          <path
             d="M 233.309,132.266 H 222.82 v 18.144 h 10.489 v 8.906 c 0,19.571 9.707,26.739 26.742,26.739 5.094,0 8.922,-0.489 13.043,-0.957 v -19.727 c -1.422,0.313 -3.336,0.625 -4.762,0.625 -6.527,0 -9.242,-2.051 -9.242,-6.836 v -8.75 h 14.004 V 132.266 H 259.09 V 70.5273 h -25.781 v 61.7387"
             style="fill:#feec9c;fill-opacity:1;fill-rule:nonzero;stroke:none"
             id="path100" />
          <path
             d="m 299.695,120.645 c 0,3.183 -0.175,6.992 -1.269,10.019 -1.289,3.203 -3.36,5.41 -7.481,5.41 -8.609,0 -9.55,-10.488 -9.55,-26.406 0,-17.9883 2.855,-23.8672 9.55,-23.8672 9.063,0 9.864,9.2187 9.864,15.2732 l 20.039,-2.8709 c -1.891,-19.414 -13.047,-29.6093 -31.817,-29.6093 -23.238,0 -35.328,20.371 -35.328,40.1172 0,21.797 12.09,43.594 36.442,43.594 27.382,0 31.503,-23.692 31.503,-31.66 h -21.953"
             style="fill:#fef0b4;fill-opacity:1;fill-rule:nonzero;stroke:none"
             id="path102" />
          <path
             d="m 310.676,120.586 c 5.703,0 10.371,-4.668 10.371,-10.391 0,-5.703 -4.668,-10.3903 -10.371,-10.3903 -5.746,0 -10.395,4.6873 -10.395,10.3903 0,5.723 4.649,10.391 10.395,10.391"
             style="fill:#fef5cc;fill-opacity:1;fill-rule:nonzero;stroke:none"
             id="path104" />
          <path
             d="m 124.012,314.414 h 25.785 v -38.027 h 0.308 c 3.672,3.828 10.356,6.523 15.61,6.523 17.832,0 27.379,-17.832 27.379,-40.898 0,-18.301 -7.633,-41.856 -29.293,-41.856 -10.024,0 -16.543,4.766 -21.645,12.422 l -4.765,-11.484 h -13.379 z m 25.785,-87.676 c -0.469,-6.699 3.512,-10.371 8.433,-10.371 7.153,0 8.125,7.188 8.125,21.973 v 6.055 c 0,15.898 0,24.179 -7.968,24.179 -3.18,0 -5.567,-1.894 -7.149,-3.183 l -1.441,-1.426 v -37.227"
             style="fill:#fde36d;fill-opacity:1;fill-rule:nonzero;stroke:none"
             id="path106" />
          <path
             d="m 178.309,314.414 h 25.781 v -38.027 h 0.312 c 3.653,3.828 10.356,6.523 15.606,6.523 17.812,0 27.367,-17.832 27.367,-40.898 0,-18.301 -7.641,-41.856 -29.281,-41.856 -10.039,0 -16.563,4.766 -21.66,12.422 l -4.762,-11.484 h -13.363 z m 25.781,-87.676 c -0.488,-6.699 3.5,-10.371 8.437,-10.371 7.149,0 8.106,7.188 8.106,21.973 v 6.055 c 0,15.898 0,24.179 -7.949,24.179 -3.204,0 -5.586,-1.894 -7.168,-3.183 l -1.426,-1.426 v -37.227"
             style="fill:#fee784;fill-opacity:1;fill-rule:nonzero;stroke:none"
             id="path108" />
          <path
             d="M 233.309,262.852 H 222.82 v 18.144 h 10.489 v 8.906 c 0,19.571 9.707,26.739 26.742,26.739 5.094,0 8.922,-0.469 13.043,-0.938 v -19.746 c -1.422,0.332 -3.336,0.645 -4.762,0.645 -6.527,0 -9.242,-2.09 -9.242,-6.856 v -8.75 h 14.004 V 262.852 H 259.09 v -61.758 h -25.781 v 61.758"
             style="fill:#feec9c;fill-opacity:1;fill-rule:nonzero;stroke:none"
             id="path110" />
          <path
             d="m 299.695,251.25 c 0,3.164 -0.175,6.992 -1.269,10.02 -1.289,3.164 -3.36,5.41 -7.481,5.41 -8.609,0 -9.55,-10.508 -9.55,-26.426 0,-17.969 2.855,-23.887 9.55,-23.887 9.063,0 9.864,9.238 9.864,15.313 l 20.039,-2.871 c -1.891,-19.434 -13.047,-29.61 -31.817,-29.61 -23.238,0 -35.328,20.371 -35.328,40.098 0,21.816 12.09,43.613 36.442,43.613 27.382,0 31.503,-23.711 31.503,-31.66 h -21.953"
             style="fill:#fef0b4;fill-opacity:1;fill-rule:nonzero;stroke:none"
             id="path112" />
          <path
             d="m 310.676,251.191 c 5.703,0 10.371,-4.668 10.371,-10.41 0,-5.703 -4.668,-10.39 -10.371,-10.39 -5.746,0 -10.395,4.687 -10.395,10.39 0,5.742 4.649,10.41 10.395,10.41"
             style="fill:#fef5cc;fill-opacity:1;fill-rule:nonzero;stroke:none"
             id="path114" />
          <path
             d="m 124.012,444.98 h 25.785 v -38.027 h 0.308 c 3.672,3.809 10.356,6.524 15.61,6.524 17.832,0 27.379,-17.813 27.379,-40.899 0,-18.281 -7.633,-41.836 -29.293,-41.836 -10.024,0 -16.543,4.766 -21.645,12.403 l -4.765,-11.446 h -13.379 z m 25.785,-87.675 c -0.469,-6.68 3.512,-10.332 8.433,-10.332 7.153,0 8.125,7.168 8.125,21.953 v 6.054 c 0,15.918 0,24.18 -7.968,24.18 -3.18,0 -5.567,-1.914 -7.149,-3.183 l -1.441,-1.426 v -37.246"
             style="fill:#fde36d;fill-opacity:1;fill-rule:nonzero;stroke:none"
             id="path116" />
          <path
             d="m 178.309,444.98 h 25.781 v -38.027 h 0.312 c 3.653,3.809 10.356,6.524 15.606,6.524 17.812,0 27.367,-17.813 27.367,-40.899 0,-18.281 -7.641,-41.836 -29.281,-41.836 -10.039,0 -16.563,4.766 -21.66,12.403 l -4.762,-11.446 h -13.363 z m 25.781,-87.675 c -0.488,-6.68 3.5,-10.332 8.437,-10.332 7.149,0 8.106,7.168 8.106,21.953 v 6.054 c 0,15.918 0,24.18 -7.949,24.18 -3.204,0 -5.586,-1.914 -7.168,-3.183 l -1.426,-1.426 v -37.246"
             style="fill:#fee784;fill-opacity:1;fill-rule:nonzero;stroke:none"
             id="path118" />
          <path
             d="M 233.309,393.438 H 222.82 v 18.125 h 10.489 v 8.906 c 0,19.57 9.707,26.738 26.742,26.738 5.094,0 8.922,-0.469 13.043,-0.937 v -19.747 c -1.422,0.332 -3.336,0.645 -4.762,0.645 -6.527,0 -9.242,-2.07 -9.242,-6.855 v -8.75 h 14.004 V 393.438 H 259.09 v -61.739 h -25.781 v 61.739"
             style="fill:#feec9c;fill-opacity:1;fill-rule:nonzero;stroke:none"
             id="path120" />
          <path
             d="m 299.695,381.816 c 0,3.184 -0.175,7.012 -1.269,10.02 -1.289,3.184 -3.36,5.41 -7.481,5.41 -8.609,0 -9.55,-10.488 -9.55,-26.406 0,-17.988 2.855,-23.867 9.55,-23.867 9.063,0 9.864,9.218 9.864,15.273 l 20.039,-2.851 c -1.891,-19.434 -13.047,-29.61 -31.817,-29.61 -23.238,0 -35.328,20.371 -35.328,40.098 0,21.797 12.09,43.594 36.442,43.594 27.382,0 31.503,-23.692 31.503,-31.661 h -21.953"
             style="fill:#fef0b4;fill-opacity:1;fill-rule:nonzero;stroke:none"
             id="path122" />
          <path
             d="m 310.676,381.758 c 5.703,0 10.371,-4.668 10.371,-10.391 0,-5.703 -4.668,-10.39 -10.371,-10.39 -5.746,0 -10.395,4.687 -10.395,10.39 0,5.723 4.649,10.391 10.395,10.391"
             style="fill:#fef5cc;fill-opacity:1;fill-rule:nonzero;stroke:none"
             id="path124" />
          <path
             d="m 811.59,183.828 h 25.785 v -38.047 h 0.309 c 3.671,3.828 10.355,6.524 15.609,6.524 17.832,0 27.383,-17.813 27.383,-40.899 0,-18.3005 -7.66,-41.8357 -29.297,-41.8357 -10.024,0 -16.543,4.7656 -21.645,12.4024 L 824.969,70.5273 H 811.59 Z m 25.785,-87.6952 c -0.473,-6.6797 3.496,-10.332 8.434,-10.332 7.152,0 8.125,7.1484 8.125,21.9532 v 6.055 c 0,15.918 0,24.179 -7.969,24.179 -3.184,0 -5.567,-1.914 -7.164,-3.183 l -1.426,-1.426 V 96.1328"
             style="fill:#fde36d;fill-opacity:1;fill-rule:nonzero;stroke:none"
             id="path126" />
          <path
             d="m 865.887,183.828 h 25.785 v -38.047 h 0.308 c 3.653,3.828 10.333,6.524 15.61,6.524 17.808,0 27.363,-17.813 27.363,-40.899 0,-18.3005 -7.64,-41.8357 -29.277,-41.8357 -10.043,0 -16.567,4.7656 -21.664,12.4024 L 879.25,70.5273 h -13.363 z m 25.785,-87.6952 c -0.492,-6.6797 3.496,-10.332 8.418,-10.332 7.168,0 8.125,7.1484 8.125,21.9532 v 6.055 c 0,15.918 0,24.179 -7.953,24.179 -3.203,0 -5.586,-1.914 -7.168,-3.183 l -1.422,-1.426 V 96.1328"
             style="fill:#fee784;fill-opacity:1;fill-rule:nonzero;stroke:none"
             id="path128" />
          <path
             d="m 920.887,132.266 h -10.489 v 18.144 h 10.489 v 8.906 c 0,19.571 9.707,26.739 26.742,26.739 5.094,0 8.902,-0.489 13.047,-0.957 v -19.727 c -1.426,0.313 -3.34,0.625 -4.77,0.625 -6.523,0 -9.234,-2.051 -9.234,-6.836 v -8.75 h 14.004 V 132.266 H 946.672 V 70.5273 h -25.785 v 61.7387"
             style="fill:#feec9c;fill-opacity:1;fill-rule:nonzero;stroke:none"
             id="path130" />
          <path
             d="m 987.273,120.645 c 0,3.183 -0.175,6.992 -1.265,10.019 -1.293,3.203 -3.363,5.41 -7.5,5.41 -8.594,0 -9.535,-10.488 -9.535,-26.406 0,-17.9883 2.855,-23.8672 9.535,-23.8672 9.082,0 9.863,9.2187 9.863,15.2732 l 20.059,-2.8709 c -1.9,-19.414 -13.047,-29.6093 -31.821,-29.6093 -23.238,0 -35.332,20.371 -35.332,40.1172 0,21.797 12.094,43.594 36.446,43.594 27.367,0 31.507,-23.692 31.507,-31.66 h -21.957"
             style="fill:#fef0b4;fill-opacity:1;fill-rule:nonzero;stroke:none"
             id="path132" />
          <path
             d="m 998.254,120.586 c 5.706,0 10.376,-4.668 10.376,-10.391 0,-5.703 -4.67,-10.3903 -10.376,-10.3903 -5.746,0 -10.395,4.6873 -10.395,10.3903 0,5.723 4.649,10.391 10.395,10.391"
             style="fill:#fef5cc;fill-opacity:1;fill-rule:nonzero;stroke:none"
             id="path134" />
          <path
             d="m 811.59,314.414 h 25.785 v -38.027 h 0.309 c 3.671,3.828 10.355,6.523 15.609,6.523 17.832,0 27.383,-17.832 27.383,-40.898 0,-18.301 -7.66,-41.856 -29.297,-41.856 -10.024,0 -16.543,4.766 -21.645,12.422 l -4.765,-11.484 H 811.59 Z m 25.785,-87.676 c -0.473,-6.699 3.496,-10.371 8.434,-10.371 7.152,0 8.125,7.188 8.125,21.973 v 6.055 c 0,15.898 0,24.179 -7.969,24.179 -3.184,0 -5.567,-1.894 -7.164,-3.183 l -1.426,-1.426 v -37.227"
             style="fill:#fde36d;fill-opacity:1;fill-rule:nonzero;stroke:none"
             id="path136" />
          <path
             d="m 865.887,314.414 h 25.785 v -38.027 h 0.308 c 3.653,3.828 10.333,6.523 15.61,6.523 17.808,0 27.363,-17.832 27.363,-40.898 0,-18.301 -7.64,-41.856 -29.277,-41.856 -10.043,0 -16.567,4.766 -21.664,12.422 l -4.762,-11.484 h -13.363 z m 25.785,-87.676 c -0.492,-6.699 3.496,-10.371 8.418,-10.371 7.168,0 8.125,7.188 8.125,21.973 v 6.055 c 0,15.898 0,24.179 -7.953,24.179 -3.203,0 -5.586,-1.894 -7.168,-3.183 l -1.422,-1.426 v -37.227"
             style="fill:#fee784;fill-opacity:1;fill-rule:nonzero;stroke:none"
             id="path138" />
          <path
             d="m 920.887,262.852 h -10.489 v 18.144 h 10.489 v 8.906 c 0,19.571 9.707,26.739 26.742,26.739 5.094,0 8.902,-0.469 13.047,-0.938 v -19.746 c -1.426,0.332 -3.34,0.645 -4.77,0.645 -6.523,0 -9.234,-2.09 -9.234,-6.856 v -8.75 h 14.004 v -18.144 h -14.004 v -61.758 h -25.785 v 61.758"
             style="fill:#feec9c;fill-opacity:1;fill-rule:nonzero;stroke:none"
             id="path140" />
          <path
             d="m 987.273,251.25 c 0,3.164 -0.175,6.992 -1.265,10.02 -1.293,3.164 -3.363,5.41 -7.5,5.41 -8.594,0 -9.535,-10.508 -9.535,-26.426 0,-17.969 2.855,-23.887 9.535,-23.887 9.082,0 9.863,9.238 9.863,15.313 l 20.059,-2.871 c -1.9,-19.434 -13.047,-29.61 -31.821,-29.61 -23.238,0 -35.332,20.371 -35.332,40.098 0,21.816 12.094,43.613 36.446,43.613 27.367,0 31.507,-23.711 31.507,-31.66 h -21.957"
             style="fill:#fef0b4;fill-opacity:1;fill-rule:nonzero;stroke:none"
             id="path142" />
          <path
             d="m 998.254,251.191 c 5.706,0 10.376,-4.668 10.376,-10.41 0,-5.703 -4.67,-10.39 -10.376,-10.39 -5.746,0 -10.395,4.687 -10.395,10.39 0,5.742 4.649,10.41 10.395,10.41"
             style="fill:#fef5cc;fill-opacity:1;fill-rule:nonzero;stroke:none"
             id="path144" />
          <path
             d="m 811.59,444.98 h 25.785 v -38.027 h 0.309 c 3.671,3.809 10.355,6.524 15.609,6.524 17.832,0 27.383,-17.813 27.383,-40.899 0,-18.281 -7.66,-41.836 -29.297,-41.836 -10.024,0 -16.543,4.766 -21.645,12.403 l -4.765,-11.446 H 811.59 Z m 25.785,-87.675 c -0.473,-6.68 3.496,-10.332 8.434,-10.332 7.152,0 8.125,7.168 8.125,21.953 v 6.054 c 0,15.918 0,24.18 -7.969,24.18 -3.184,0 -5.567,-1.914 -7.164,-3.183 l -1.426,-1.426 v -37.246"
             style="fill:#fde36d;fill-opacity:1;fill-rule:nonzero;stroke:none"
             id="path146" />
          <path
             d="m 865.887,444.98 h 25.785 v -38.027 h 0.308 c 3.653,3.809 10.333,6.524 15.61,6.524 17.808,0 27.363,-17.813 27.363,-40.899 0,-18.281 -7.64,-41.836 -29.277,-41.836 -10.043,0 -16.567,4.766 -21.664,12.403 l -4.762,-11.446 h -13.363 z m 25.785,-87.675 c -0.492,-6.68 3.496,-10.332 8.418,-10.332 7.168,0 8.125,7.168 8.125,21.953 v 6.054 c 0,15.918 0,24.18 -7.953,24.18 -3.203,0 -5.586,-1.914 -7.168,-3.183 l -1.422,-1.426 v -37.246"
             style="fill:#fee784;fill-opacity:1;fill-rule:nonzero;stroke:none"
             id="path148" />
          <path
             d="m 920.887,393.438 h -10.489 v 18.125 h 10.489 v 8.906 c 0,19.57 9.707,26.738 26.742,26.738 5.094,0 8.902,-0.469 13.047,-0.937 v -19.747 c -1.426,0.332 -3.34,0.645 -4.77,0.645 -6.523,0 -9.234,-2.07 -9.234,-6.855 v -8.75 h 14.004 v -18.125 h -14.004 v -61.739 h -25.785 v 61.739"
             style="fill:#feec9c;fill-opacity:1;fill-rule:nonzero;stroke:none"
             id="path150" />
          <path
             d="m 987.273,381.816 c 0,3.184 -0.175,7.012 -1.265,10.02 -1.293,3.184 -3.363,5.41 -7.5,5.41 -8.594,0 -9.535,-10.488 -9.535,-26.406 0,-17.988 2.855,-23.867 9.535,-23.867 9.082,0 9.863,9.218 9.863,15.273 l 20.059,-2.851 c -1.9,-19.434 -13.047,-29.61 -31.821,-29.61 -23.238,0 -35.332,20.371 -35.332,40.098 0,21.797 12.094,43.594 36.446,43.594 27.367,0 31.507,-23.692 31.507,-31.661 h -21.957"
             style="fill:#fef0b4;fill-opacity:1;fill-rule:nonzero;stroke:none"
             id="path152" />
          <path
             d="m 998.254,381.758 c 5.706,0 10.376,-4.668 10.376,-10.391 0,-5.703 -4.67,-10.39 -10.376,-10.39 -5.746,0 -10.395,4.687 -10.395,10.39 0,5.723 4.649,10.391 10.395,10.391"
             style="fill:#fef5cc;fill-opacity:1;fill-rule:nonzero;stroke:none"
             id="path154" />
          <path
             d="m 1042.2,183.828 h 25.8 v -38.047 h 0.31 c 3.67,3.828 10.33,6.524 15.58,6.524 17.84,0 27.39,-17.813 27.39,-40.899 0,-18.3005 -7.64,-41.8357 -29.28,-41.8357 -10.02,0 -16.56,4.7656 -21.64,12.4024 l -4.78,-11.4454 H 1042.2 Z M 1068,96.1328 c -0.49,-6.6797 3.5,-10.332 8.42,-10.332 7.17,0 8.12,7.1484 8.12,21.9532 v 6.055 c 0,15.918 0,24.179 -7.97,24.179 -3.16,0 -5.56,-1.914 -7.14,-3.183 L 1068,133.379 V 96.1328"
             style="fill:#fde36d;fill-opacity:1;fill-rule:nonzero;stroke:none"
             id="path156" />
          <path
             d="m 1096.5,183.828 h 25.77 v -38.047 h 0.32 c 3.67,3.828 10.35,6.524 15.6,6.524 17.83,0 27.36,-17.813 27.36,-40.899 0,-18.3005 -7.63,-41.8357 -29.27,-41.8357 -10.02,0 -16.55,4.7656 -21.64,12.4024 l -4.79,-11.4454 h -13.35 z m 25.77,-87.6952 c -0.47,-6.6797 3.52,-10.332 8.44,-10.332 7.15,0 8.13,7.1484 8.13,21.9532 v 6.055 c 0,15.918 0,24.179 -7.97,24.179 -3.19,0 -5.57,-1.914 -7.15,-3.183 l -1.45,-1.426 V 96.1328"
             style="fill:#fee784;fill-opacity:1;fill-rule:nonzero;stroke:none"
             id="path158" />
          <path
             d="m 1151.51,132.266 h -10.5 v 18.144 h 10.5 v 8.906 c 0,19.571 9.71,26.739 26.74,26.739 5.08,0 8.91,-0.489 13.05,-0.957 v -19.727 c -1.42,0.313 -3.34,0.625 -4.79,0.625 -6.52,0 -9.21,-2.051 -9.21,-6.836 v -8.75 h 14 v -18.144 h -14 V 70.5273 h -25.79 v 61.7387"
             style="fill:#feec9c;fill-opacity:1;fill-rule:nonzero;stroke:none"
             id="path160" />
          <path
             d="m 1217.88,120.645 c 0,3.183 -0.16,6.992 -1.27,10.019 -1.27,3.203 -3.34,5.41 -7.48,5.41 -8.59,0 -9.55,-10.488 -9.55,-26.406 0,-17.9883 2.87,-23.8672 9.55,-23.8672 9.06,0 9.87,9.2187 9.87,15.2732 l 20.05,-2.8709 c -1.91,-19.414 -13.07,-29.6093 -31.84,-29.6093 -23.24,0 -35.33,20.371 -35.33,40.1172 0,21.797 12.09,43.594 36.45,43.594 27.38,0 31.52,-23.692 31.52,-31.66 h -21.97"
             style="fill:#fef0b4;fill-opacity:1;fill-rule:nonzero;stroke:none"
             id="path162" />
          <path
             d="m 1228.86,120.586 c 5.72,0 10.39,-4.668 10.39,-10.391 0,-5.703 -4.67,-10.3903 -10.39,-10.3903 -5.75,0 -10.4,4.6873 -10.4,10.3903 0,5.723 4.65,10.391 10.4,10.391"
             style="fill:#fef5cc;fill-opacity:1;fill-rule:nonzero;stroke:none"
             id="path164" />
          <path
             d="m 1042.2,314.414 h 25.8 v -38.027 h 0.31 c 3.67,3.828 10.33,6.523 15.58,6.523 17.84,0 27.39,-17.832 27.39,-40.898 0,-18.301 -7.64,-41.856 -29.28,-41.856 -10.02,0 -16.56,4.766 -21.64,12.422 l -4.78,-11.484 h -13.38 z m 25.8,-87.676 c -0.49,-6.699 3.5,-10.371 8.42,-10.371 7.17,0 8.12,7.188 8.12,21.973 v 6.055 c 0,15.898 0,24.179 -7.97,24.179 -3.16,0 -5.56,-1.894 -7.14,-3.183 l -1.43,-1.426 v -37.227"
             style="fill:#fde36d;fill-opacity:1;fill-rule:nonzero;stroke:none"
             id="path166" />
          <path
             d="m 1096.5,314.414 h 25.77 v -38.027 h 0.32 c 3.67,3.828 10.35,6.523 15.6,6.523 17.83,0 27.36,-17.832 27.36,-40.898 0,-18.301 -7.63,-41.856 -29.27,-41.856 -10.02,0 -16.55,4.766 -21.64,12.422 l -4.79,-11.484 h -13.35 z m 25.77,-87.676 c -0.47,-6.699 3.52,-10.371 8.44,-10.371 7.15,0 8.13,7.188 8.13,21.973 v 6.055 c 0,15.898 0,24.179 -7.97,24.179 -3.19,0 -5.57,-1.894 -7.15,-3.183 l -1.45,-1.426 v -37.227"
             style="fill:#fee784;fill-opacity:1;fill-rule:nonzero;stroke:none"
             id="path168" />
          <path
             d="m 1151.51,262.852 h -10.5 v 18.144 h 10.5 v 8.906 c 0,19.571 9.71,26.739 26.74,26.739 5.08,0 8.91,-0.469 13.05,-0.938 v -19.746 c -1.42,0.332 -3.34,0.645 -4.79,0.645 -6.52,0 -9.21,-2.09 -9.21,-6.856 v -8.75 h 14 v -18.144 h -14 v -61.758 h -25.79 v 61.758"
             style="fill:#feec9c;fill-opacity:1;fill-rule:nonzero;stroke:none"
             id="path170" />
          <path
             d="m 1217.88,251.25 c 0,3.164 -0.16,6.992 -1.27,10.02 -1.27,3.164 -3.34,5.41 -7.48,5.41 -8.59,0 -9.55,-10.508 -9.55,-26.426 0,-17.969 2.87,-23.887 9.55,-23.887 9.06,0 9.87,9.238 9.87,15.313 l 20.05,-2.871 c -1.91,-19.434 -13.07,-29.61 -31.84,-29.61 -23.24,0 -35.33,20.371 -35.33,40.098 0,21.816 12.09,43.613 36.45,43.613 27.38,0 31.52,-23.711 31.52,-31.66 h -21.97"
             style="fill:#fef0b4;fill-opacity:1;fill-rule:nonzero;stroke:none"
             id="path172" />
          <path
             d="m 1228.86,251.191 c 5.72,0 10.39,-4.668 10.39,-10.41 0,-5.703 -4.67,-10.39 -10.39,-10.39 -5.75,0 -10.4,4.687 -10.4,10.39 0,5.742 4.65,10.41 10.4,10.41"
             style="fill:#fef5cc;fill-opacity:1;fill-rule:nonzero;stroke:none"
             id="path174" />
          <path
             d="m 1042.2,444.98 h 25.8 v -38.027 h 0.31 c 3.67,3.809 10.33,6.524 15.58,6.524 17.84,0 27.39,-17.813 27.39,-40.899 0,-18.281 -7.64,-41.836 -29.28,-41.836 -10.02,0 -16.56,4.766 -21.64,12.403 l -4.78,-11.446 h -13.38 z m 25.8,-87.675 c -0.49,-6.68 3.5,-10.332 8.42,-10.332 7.17,0 8.12,7.168 8.12,21.953 v 6.054 c 0,15.918 0,24.18 -7.97,24.18 -3.16,0 -5.56,-1.914 -7.14,-3.183 l -1.43,-1.426 v -37.246"
             style="fill:#fde36d;fill-opacity:1;fill-rule:nonzero;stroke:none"
             id="path176" />
          <path
             d="m 1096.5,444.98 h 25.77 v -38.027 h 0.32 c 3.67,3.809 10.35,6.524 15.6,6.524 17.83,0 27.36,-17.813 27.36,-40.899 0,-18.281 -7.63,-41.836 -29.27,-41.836 -10.02,0 -16.55,4.766 -21.64,12.403 l -4.79,-11.446 h -13.35 z m 25.77,-87.675 c -0.47,-6.68 3.52,-10.332 8.44,-10.332 7.15,0 8.13,7.168 8.13,21.953 v 6.054 c 0,15.918 0,24.18 -7.97,24.18 -3.19,0 -5.57,-1.914 -7.15,-3.183 l -1.45,-1.426 v -37.246"
             style="fill:#fee784;fill-opacity:1;fill-rule:nonzero;stroke:none"
             id="path178" />
          <path
             d="m 1151.51,393.438 h -10.5 v 18.125 h 10.5 v 8.906 c 0,19.57 9.71,26.738 26.74,26.738 5.08,0 8.91,-0.469 13.05,-0.937 v -19.747 c -1.42,0.332 -3.34,0.645 -4.79,0.645 -6.52,0 -9.21,-2.07 -9.21,-6.855 v -8.75 h 14 v -18.125 h -14 v -61.739 h -25.79 v 61.739"
             style="fill:#feec9c;fill-opacity:1;fill-rule:nonzero;stroke:none"
             id="path180" />
          <path
             d="m 1217.88,381.816 c 0,3.184 -0.16,7.012 -1.27,10.02 -1.27,3.184 -3.34,5.41 -7.48,5.41 -8.59,0 -9.55,-10.488 -9.55,-26.406 0,-17.988 2.87,-23.867 9.55,-23.867 9.06,0 9.87,9.218 9.87,15.273 l 20.05,-2.851 c -1.91,-19.434 -13.07,-29.61 -31.84,-29.61 -23.24,0 -35.33,20.371 -35.33,40.098 0,21.797 12.09,43.594 36.45,43.594 27.38,0 31.52,-23.692 31.52,-31.661 h -21.97"
             style="fill:#fef0b4;fill-opacity:1;fill-rule:nonzero;stroke:none"
             id="path182" />
          <path
             d="m 1228.86,381.758 c 5.72,0 10.39,-4.668 10.39,-10.391 0,-5.703 -4.67,-10.39 -10.39,-10.39 -5.75,0 -10.4,4.687 -10.4,10.39 0,5.723 4.65,10.391 10.4,10.391"
             style="fill:#fef5cc;fill-opacity:1;fill-rule:nonzero;stroke:none"
             id="path184" />
          <path
             d="m 582.391,575.566 h 25.785 V 537.52 h 0.308 c 3.672,3.828 10.356,6.543 15.606,6.543 17.836,0 27.383,-17.833 27.383,-40.918 0,-18.301 -7.633,-41.836 -29.297,-41.836 -10.02,0 -16.543,4.765 -21.637,12.402 l -4.769,-11.445 h -13.379 z m 25.785,-87.695 c -0.469,-6.68 3.512,-10.332 8.433,-10.332 7.168,0 8.125,7.149 8.125,21.953 v 6.055 c 0,15.898 0,24.18 -7.968,24.18 -3.164,0 -5.563,-1.914 -7.145,-3.184 l -1.445,-1.426 v -37.246"
             style="fill:#fde36d;fill-opacity:1;fill-rule:nonzero;stroke:none"
             id="path186" />
          <path
             d="m 636.688,575.566 h 25.781 V 537.52 h 0.312 c 3.653,3.828 10.352,6.543 15.606,6.543 17.816,0 27.367,-17.833 27.367,-40.918 0,-18.301 -7.641,-41.836 -29.281,-41.836 -10.039,0 -16.559,4.765 -21.66,12.402 l -4.762,-11.445 h -13.363 z m 25.781,-87.695 c -0.489,-6.68 3.496,-10.332 8.437,-10.332 7.149,0 8.106,7.149 8.106,21.953 v 6.055 c 0,15.898 0,24.18 -7.949,24.18 -3.18,0 -5.563,-1.914 -7.168,-3.184 l -1.426,-1.426 v -37.246"
             style="fill:#fee784;fill-opacity:1;fill-rule:nonzero;stroke:none"
             id="path188" />
          <path
             d="m 691.688,524.004 h -10.485 v 18.144 h 10.485 v 8.907 c 0,19.57 9.707,26.738 26.738,26.738 5.097,0 8.926,-0.488 13.07,-0.957 v -19.727 c -1.445,0.313 -3.363,0.625 -4.785,0.625 -6.527,0 -9.242,-2.07 -9.242,-6.836 v -8.75 h 14.027 v -18.144 h -14.027 v -61.738 h -25.781 v 61.738"
             style="fill:#feec9c;fill-opacity:1;fill-rule:nonzero;stroke:none"
             id="path190" />
          <path
             d="m 758.078,512.383 c 0,3.183 -0.18,7.012 -1.273,10.019 -1.289,3.184 -3.34,5.411 -7.477,5.411 -8.613,0 -9.555,-10.489 -9.555,-26.407 0,-17.988 2.856,-23.867 9.555,-23.867 9.059,0 9.86,9.219 9.86,15.274 l 20.039,-2.852 c -1.891,-19.434 -13.047,-29.629 -31.813,-29.629 -23.242,0 -35.332,20.391 -35.332,40.117 0,21.797 12.09,43.614 36.441,43.614 27.383,0 31.504,-23.711 31.504,-31.68 h -21.949"
             style="fill:#fef0b4;fill-opacity:1;fill-rule:nonzero;stroke:none"
             id="path192" />
          <path
             d="m 769.051,512.324 c 5.707,0 10.375,-4.668 10.375,-10.39 0,-5.704 -4.668,-10.391 -10.375,-10.391 -5.742,0 -10.387,4.687 -10.387,10.391 0,5.722 4.645,10.39 10.387,10.39"
             style="fill:#fef5cc;fill-opacity:1;fill-rule:nonzero;stroke:none"
             id="path194" />
          <path
             d="m 353.215,575.566 h 25.781 V 537.52 h 0.309 c 3.672,3.828 10.351,6.543 15.609,6.543 17.809,0 27.359,-17.833 27.359,-40.918 0,-18.301 -7.636,-41.836 -29.273,-41.836 -10.023,0 -16.566,4.765 -21.645,12.402 l -4.785,-11.445 h -13.355 z m 25.781,-87.695 c -0.488,-6.68 3.492,-10.332 8.434,-10.332 7.152,0 8.109,7.149 8.109,21.953 v 6.055 c 0,15.898 0,24.18 -7.949,24.18 -3.188,0 -5.57,-1.914 -7.168,-3.184 l -1.426,-1.426 v -37.246"
             style="fill:#fde36d;fill-opacity:1;fill-rule:nonzero;stroke:none"
             id="path196" />
          <path
             d="m 407.488,575.566 h 25.805 V 537.52 h 0.309 c 3.656,3.828 10.332,6.543 15.586,6.543 17.832,0 27.363,-17.833 27.363,-40.918 0,-18.301 -7.633,-41.836 -29.278,-41.836 -10.015,0 -16.543,4.765 -21.64,12.402 l -4.785,-11.445 h -13.36 z m 25.805,-87.695 c -0.492,-6.68 3.496,-10.332 8.418,-10.332 7.168,0 8.125,7.149 8.125,21.953 v 6.055 c 0,15.898 0,24.18 -7.973,24.18 -3.183,0 -5.562,-1.914 -7.148,-3.184 l -1.422,-1.426 v -37.246"
             style="fill:#fee784;fill-opacity:1;fill-rule:nonzero;stroke:none"
             id="path198" />
          <path
             d="m 462.508,524.004 h -10.504 v 18.144 h 10.504 v 8.907 c 0,19.57 9.707,26.738 26.742,26.738 5.078,0 8.902,-0.488 13.047,-0.957 v -19.727 c -1.426,0.313 -3.34,0.625 -4.77,0.625 -6.543,0 -9.234,-2.07 -9.234,-6.836 v -8.75 h 14.004 v -18.144 h -14.004 v -61.738 h -25.785 v 61.738"
             style="fill:#feec9c;fill-opacity:1;fill-rule:nonzero;stroke:none"
             id="path200" />
          <path
             d="m 528.895,512.383 c 0,3.183 -0.176,7.012 -1.29,10.019 -1.265,3.184 -3.339,5.411 -7.476,5.411 -8.598,0 -9.551,-10.489 -9.551,-26.407 0,-17.988 2.867,-23.867 9.551,-23.867 9.082,0 9.859,9.219 9.859,15.274 l 20.063,-2.852 c -1.918,-19.434 -13.047,-29.629 -31.836,-29.629 -23.227,0 -35.317,20.391 -35.317,40.117 0,21.797 12.09,43.614 36.446,43.614 27.367,0 31.504,-23.711 31.504,-31.68 h -21.953"
             style="fill:#fef0b4;fill-opacity:1;fill-rule:nonzero;stroke:none"
             id="path202" />
          <path
             d="m 539.852,512.324 c 5.726,0 10.394,-4.668 10.394,-10.39 0,-5.704 -4.668,-10.391 -10.394,-10.391 -5.719,0 -10.372,4.687 -10.372,10.391 0,5.722 4.653,10.39 10.372,10.39"
             style="fill:#fef5cc;fill-opacity:1;fill-rule:nonzero;stroke:none"
             id="path204" />
          <path
             d="m 124.012,575.566 h 25.785 V 537.52 h 0.308 c 3.672,3.828 10.356,6.543 15.61,6.543 17.832,0 27.379,-17.833 27.379,-40.918 0,-18.301 -7.633,-41.836 -29.293,-41.836 -10.024,0 -16.543,4.765 -21.645,12.402 l -4.765,-11.445 h -13.379 z m 25.785,-87.695 c -0.469,-6.68 3.512,-10.332 8.433,-10.332 7.153,0 8.125,7.149 8.125,21.953 v 6.055 c 0,15.898 0,24.18 -7.968,24.18 -3.18,0 -5.567,-1.914 -7.149,-3.184 l -1.441,-1.426 v -37.246"
             style="fill:#fde36d;fill-opacity:1;fill-rule:nonzero;stroke:none"
             id="path206" />
          <path
             d="M 178.309,575.566 H 204.09 V 537.52 h 0.312 c 3.653,3.828 10.356,6.543 15.606,6.543 17.812,0 27.367,-17.833 27.367,-40.918 0,-18.301 -7.641,-41.836 -29.281,-41.836 -10.039,0 -16.563,4.765 -21.66,12.402 l -4.762,-11.445 h -13.363 z m 25.781,-87.695 c -0.488,-6.68 3.5,-10.332 8.437,-10.332 7.149,0 8.106,7.149 8.106,21.953 v 6.055 c 0,15.898 0,24.18 -7.949,24.18 -3.204,0 -5.586,-1.914 -7.168,-3.184 l -1.426,-1.426 v -37.246"
             style="fill:#fee784;fill-opacity:1;fill-rule:nonzero;stroke:none"
             id="path208" />
          <path
             d="M 233.309,524.004 H 222.82 v 18.144 h 10.489 v 8.907 c 0,19.57 9.707,26.738 26.742,26.738 5.094,0 8.922,-0.488 13.043,-0.957 v -19.727 c -1.422,0.313 -3.336,0.625 -4.762,0.625 -6.527,0 -9.242,-2.07 -9.242,-6.836 v -8.75 h 14.004 V 524.004 H 259.09 v -61.738 h -25.781 v 61.738"
             style="fill:#feec9c;fill-opacity:1;fill-rule:nonzero;stroke:none"
             id="path210" />
          <path
             d="m 299.695,512.383 c 0,3.183 -0.175,7.012 -1.269,10.019 -1.289,3.184 -3.36,5.411 -7.481,5.411 -8.609,0 -9.55,-10.489 -9.55,-26.407 0,-17.988 2.855,-23.867 9.55,-23.867 9.063,0 9.864,9.219 9.864,15.274 l 20.039,-2.852 c -1.891,-19.434 -13.047,-29.629 -31.817,-29.629 -23.238,0 -35.328,20.391 -35.328,40.117 0,21.797 12.09,43.614 36.442,43.614 27.382,0 31.503,-23.711 31.503,-31.68 h -21.953"
             style="fill:#fef0b4;fill-opacity:1;fill-rule:nonzero;stroke:none"
             id="path212" />
          <path
             d="m 310.676,512.324 c 5.703,0 10.371,-4.668 10.371,-10.39 0,-5.704 -4.668,-10.391 -10.371,-10.391 -5.746,0 -10.395,4.687 -10.395,10.391 0,5.722 4.649,10.39 10.395,10.39"
             style="fill:#fef5cc;fill-opacity:1;fill-rule:nonzero;stroke:none"
             id="path214" />
          <path
             d="m 811.59,575.566 h 25.785 V 537.52 h 0.309 c 3.671,3.828 10.355,6.543 15.609,6.543 17.832,0 27.383,-17.833 27.383,-40.918 0,-18.301 -7.66,-41.836 -29.297,-41.836 -10.024,0 -16.543,4.765 -21.645,12.402 l -4.765,-11.445 H 811.59 Z m 25.785,-87.695 c -0.473,-6.68 3.496,-10.332 8.434,-10.332 7.152,0 8.125,7.149 8.125,21.953 v 6.055 c 0,15.898 0,24.18 -7.969,24.18 -3.184,0 -5.567,-1.914 -7.164,-3.184 l -1.426,-1.426 v -37.246"
             style="fill:#fde36d;fill-opacity:1;fill-rule:nonzero;stroke:none"
             id="path216" />
          <path
             d="m 865.887,575.566 h 25.785 V 537.52 h 0.308 c 3.653,3.828 10.333,6.543 15.61,6.543 17.808,0 27.363,-17.833 27.363,-40.918 0,-18.301 -7.64,-41.836 -29.277,-41.836 -10.043,0 -16.567,4.765 -21.664,12.402 l -4.762,-11.445 h -13.363 z m 25.785,-87.695 c -0.492,-6.68 3.496,-10.332 8.418,-10.332 7.168,0 8.125,7.149 8.125,21.953 v 6.055 c 0,15.898 0,24.18 -7.953,24.18 -3.203,0 -5.586,-1.914 -7.168,-3.184 l -1.422,-1.426 v -37.246"
             style="fill:#fee784;fill-opacity:1;fill-rule:nonzero;stroke:none"
             id="path218" />
          <path
             d="m 920.887,524.004 h -10.489 v 18.144 h 10.489 v 8.907 c 0,19.57 9.707,26.738 26.742,26.738 5.094,0 8.902,-0.488 13.047,-0.957 v -19.727 c -1.426,0.313 -3.34,0.625 -4.77,0.625 -6.523,0 -9.234,-2.07 -9.234,-6.836 v -8.75 h 14.004 v -18.144 h -14.004 v -61.738 h -25.785 v 61.738"
             style="fill:#feec9c;fill-opacity:1;fill-rule:nonzero;stroke:none"
             id="path220" />
          <path
             d="m 987.273,512.383 c 0,3.183 -0.175,7.012 -1.265,10.019 -1.293,3.184 -3.363,5.411 -7.5,5.411 -8.594,0 -9.535,-10.489 -9.535,-26.407 0,-17.988 2.855,-23.867 9.535,-23.867 9.082,0 9.863,9.219 9.863,15.274 l 20.059,-2.852 c -1.9,-19.434 -13.047,-29.629 -31.821,-29.629 -23.238,0 -35.332,20.391 -35.332,40.117 0,21.797 12.094,43.614 36.446,43.614 27.367,0 31.507,-23.711 31.507,-31.68 h -21.957"
             style="fill:#fef0b4;fill-opacity:1;fill-rule:nonzero;stroke:none"
             id="path222" />
          <path
             d="m 998.254,512.324 c 5.706,0 10.376,-4.668 10.376,-10.39 0,-5.704 -4.67,-10.391 -10.376,-10.391 -5.746,0 -10.395,4.687 -10.395,10.391 0,5.722 4.649,10.39 10.395,10.39"
             style="fill:#fef5cc;fill-opacity:1;fill-rule:nonzero;stroke:none"
             id="path224" />
          <path
             d="M 1042.2,575.566 H 1068 V 537.52 h 0.31 c 3.67,3.828 10.33,6.543 15.58,6.543 17.84,0 27.39,-17.833 27.39,-40.918 0,-18.301 -7.64,-41.836 -29.28,-41.836 -10.02,0 -16.56,4.765 -21.64,12.402 l -4.78,-11.445 h -13.38 z m 25.8,-87.695 c -0.49,-6.68 3.5,-10.332 8.42,-10.332 7.17,0 8.12,7.149 8.12,21.953 v 6.055 c 0,15.898 0,24.18 -7.97,24.18 -3.16,0 -5.56,-1.914 -7.14,-3.184 l -1.43,-1.426 v -37.246"
             style="fill:#fde36d;fill-opacity:1;fill-rule:nonzero;stroke:none"
             id="path226" />
          <path
             d="m 1096.5,575.566 h 25.77 V 537.52 h 0.32 c 3.67,3.828 10.35,6.543 15.6,6.543 17.83,0 27.36,-17.833 27.36,-40.918 0,-18.301 -7.63,-41.836 -29.27,-41.836 -10.02,0 -16.55,4.765 -21.64,12.402 l -4.79,-11.445 h -13.35 z m 25.77,-87.695 c -0.47,-6.68 3.52,-10.332 8.44,-10.332 7.15,0 8.13,7.149 8.13,21.953 v 6.055 c 0,15.898 0,24.18 -7.97,24.18 -3.19,0 -5.57,-1.914 -7.15,-3.184 l -1.45,-1.426 v -37.246"
             style="fill:#fee784;fill-opacity:1;fill-rule:nonzero;stroke:none"
             id="path228" />
          <path
             d="m 1151.51,524.004 h -10.5 v 18.144 h 10.5 v 8.907 c 0,19.57 9.71,26.738 26.74,26.738 5.08,0 8.91,-0.488 13.05,-0.957 v -19.727 c -1.42,0.313 -3.34,0.625 -4.79,0.625 -6.52,0 -9.21,-2.07 -9.21,-6.836 v -8.75 h 14 v -18.144 h -14 v -61.738 h -25.79 v 61.738"
             style="fill:#feec9c;fill-opacity:1;fill-rule:nonzero;stroke:none"
             id="path230" />
          <path
             d="m 1217.88,512.383 c 0,3.183 -0.16,7.012 -1.27,10.019 -1.27,3.184 -3.34,5.411 -7.48,5.411 -8.59,0 -9.55,-10.489 -9.55,-26.407 0,-17.988 2.87,-23.867 9.55,-23.867 9.06,0 9.87,9.219 9.87,15.274 l 20.05,-2.852 c -1.91,-19.434 -13.07,-29.629 -31.84,-29.629 -23.24,0 -35.33,20.391 -35.33,40.117 0,21.797 12.09,43.614 36.45,43.614 27.38,0 31.52,-23.711 31.52,-31.68 h -21.97"
             style="fill:#fef0b4;fill-opacity:1;fill-rule:nonzero;stroke:none"
             id="path232" />
          <path
             d="m 1228.86,512.324 c 5.72,0 10.39,-4.668 10.39,-10.39 0,-5.704 -4.67,-10.391 -10.39,-10.391 -5.75,0 -10.4,4.687 -10.4,10.391 0,5.722 4.65,10.39 10.4,10.39"
             style="fill:#fef5cc;fill-opacity:1;fill-rule:nonzero;stroke:none"
             id="path234" />
          <path
             d="m 582.391,706.164 h 25.785 v -38.047 h 0.308 c 3.672,3.828 10.356,6.524 15.606,6.524 17.836,0 27.383,-17.813 27.383,-40.907 0,-18.304 -7.633,-41.839 -29.297,-41.839 -10.02,0 -16.543,4.765 -21.637,12.402 l -4.769,-11.465 h -13.379 z m 25.785,-87.707 c -0.469,-6.68 3.512,-10.352 8.433,-10.352 7.168,0 8.125,7.168 8.125,21.977 v 6.055 c 0,15.906 0,24.187 -7.968,24.187 -3.164,0 -5.563,-1.918 -7.145,-3.183 l -1.445,-1.426 v -37.258"
             style="fill:#fde36d;fill-opacity:1;fill-rule:nonzero;stroke:none"
             id="path236" />
          <path
             d="m 636.688,706.164 h 25.781 v -38.047 h 0.312 c 3.653,3.828 10.352,6.524 15.606,6.524 17.816,0 27.367,-17.813 27.367,-40.907 0,-18.304 -7.641,-41.839 -29.281,-41.839 -10.039,0 -16.559,4.765 -21.66,12.402 l -4.762,-11.465 h -13.363 z m 25.781,-87.707 c -0.489,-6.68 3.496,-10.352 8.437,-10.352 7.149,0 8.106,7.168 8.106,21.977 v 6.055 c 0,15.906 0,24.187 -7.949,24.187 -3.18,0 -5.563,-1.918 -7.168,-3.183 l -1.426,-1.426 v -37.258"
             style="fill:#fee784;fill-opacity:1;fill-rule:nonzero;stroke:none"
             id="path238" />
          <path
             d="m 691.688,654.602 h -10.485 v 18.144 h 10.485 v 8.906 c 0,19.571 9.707,26.739 26.738,26.739 5.097,0 8.926,-0.489 13.07,-0.957 v -19.727 c -1.445,0.313 -3.363,0.625 -4.785,0.625 -6.527,0 -9.242,-2.07 -9.242,-6.836 v -8.75 h 14.027 v -18.144 h -14.027 v -61.77 h -25.781 v 61.77"
             style="fill:#feec9c;fill-opacity:1;fill-rule:nonzero;stroke:none"
             id="path240" />
          <path
             d="m 758.078,642.98 c 0,3.184 -0.18,6.993 -1.273,10.02 -1.289,3.184 -3.34,5.406 -7.477,5.406 -8.613,0 -9.555,-10.484 -9.555,-26.41 0,-17.992 2.856,-23.891 9.555,-23.891 9.059,0 9.86,9.239 9.86,15.297 l 20.039,-2.875 c -1.891,-19.414 -13.047,-29.609 -31.813,-29.609 -23.242,0 -35.332,20.391 -35.332,40.121 0,21.805 12.09,43.602 36.441,43.602 27.383,0 31.504,-23.692 31.504,-31.661 h -21.949"
             style="fill:#fef0b4;fill-opacity:1;fill-rule:nonzero;stroke:none"
             id="path242" />
          <path
             d="m 769.051,642.922 c 5.707,0 10.375,-4.668 10.375,-10.399 0,-5.703 -4.668,-10.39 -10.375,-10.39 -5.742,0 -10.387,4.687 -10.387,10.39 0,5.731 4.645,10.399 10.387,10.399"
             style="fill:#fef5cc;fill-opacity:1;fill-rule:nonzero;stroke:none"
             id="path244" />
          <path
             d="m 353.215,706.164 h 25.781 v -38.047 h 0.309 c 3.672,3.828 10.351,6.524 15.609,6.524 17.809,0 27.359,-17.813 27.359,-40.907 0,-18.304 -7.636,-41.839 -29.273,-41.839 -10.023,0 -16.566,4.765 -21.645,12.402 l -4.785,-11.465 h -13.355 z m 25.781,-87.707 c -0.488,-6.68 3.492,-10.352 8.434,-10.352 7.152,0 8.109,7.168 8.109,21.977 v 6.055 c 0,15.906 0,24.187 -7.949,24.187 -3.188,0 -5.57,-1.918 -7.168,-3.183 l -1.426,-1.426 v -37.258"
             style="fill:#fde36d;fill-opacity:1;fill-rule:nonzero;stroke:none"
             id="path246" />
          <path
             d="m 407.488,706.164 h 25.805 v -38.047 h 0.309 c 3.656,3.828 10.332,6.524 15.586,6.524 17.832,0 27.363,-17.813 27.363,-40.907 0,-18.304 -7.633,-41.839 -29.278,-41.839 -10.015,0 -16.543,4.765 -21.64,12.402 l -4.785,-11.465 h -13.36 z m 25.805,-87.707 c -0.492,-6.68 3.496,-10.352 8.418,-10.352 7.168,0 8.125,7.168 8.125,21.977 v 6.055 c 0,15.906 0,24.187 -7.973,24.187 -3.183,0 -5.562,-1.918 -7.148,-3.183 l -1.422,-1.426 v -37.258"
             style="fill:#fee784;fill-opacity:1;fill-rule:nonzero;stroke:none"
             id="path248" />
          <path
             d="m 462.508,654.602 h -10.504 v 18.144 h 10.504 v 8.906 c 0,19.571 9.707,26.739 26.742,26.739 5.078,0 8.902,-0.489 13.047,-0.957 v -19.727 c -1.426,0.313 -3.34,0.625 -4.77,0.625 -6.543,0 -9.234,-2.07 -9.234,-6.836 v -8.75 h 14.004 v -18.144 h -14.004 v -61.77 h -25.785 v 61.77"
             style="fill:#feec9c;fill-opacity:1;fill-rule:nonzero;stroke:none"
             id="path250" />
          <path
             d="m 528.895,642.98 c 0,3.184 -0.176,6.993 -1.29,10.02 -1.265,3.184 -3.339,5.406 -7.476,5.406 -8.598,0 -9.551,-10.484 -9.551,-26.41 0,-17.992 2.867,-23.891 9.551,-23.891 9.082,0 9.859,9.239 9.859,15.297 l 20.063,-2.875 c -1.918,-19.414 -13.047,-29.609 -31.836,-29.609 -23.227,0 -35.317,20.391 -35.317,40.121 0,21.805 12.09,43.602 36.446,43.602 27.367,0 31.504,-23.692 31.504,-31.661 h -21.953"
             style="fill:#fef0b4;fill-opacity:1;fill-rule:nonzero;stroke:none"
             id="path252" />
          <path
             d="m 539.852,642.922 c 5.726,0 10.394,-4.668 10.394,-10.399 0,-5.703 -4.668,-10.39 -10.394,-10.39 -5.719,0 -10.372,4.687 -10.372,10.39 0,5.731 4.653,10.399 10.372,10.399"
             style="fill:#fef5cc;fill-opacity:1;fill-rule:nonzero;stroke:none"
             id="path254" />
          <path
             d="m 124.012,706.164 h 25.785 v -38.047 h 0.308 c 3.672,3.828 10.356,6.524 15.61,6.524 17.832,0 27.379,-17.813 27.379,-40.907 0,-18.304 -7.633,-41.839 -29.293,-41.839 -10.024,0 -16.543,4.765 -21.645,12.402 l -4.765,-11.465 h -13.379 z m 25.785,-87.707 c -0.469,-6.68 3.512,-10.352 8.433,-10.352 7.153,0 8.125,7.168 8.125,21.977 v 6.055 c 0,15.906 0,24.187 -7.968,24.187 -3.18,0 -5.567,-1.918 -7.149,-3.183 l -1.441,-1.426 v -37.258"
             style="fill:#fde36d;fill-opacity:1;fill-rule:nonzero;stroke:none"
             id="path256" />
          <path
             d="m 178.309,706.164 h 25.781 v -38.047 h 0.312 c 3.653,3.828 10.356,6.524 15.606,6.524 17.812,0 27.367,-17.813 27.367,-40.907 0,-18.304 -7.641,-41.839 -29.281,-41.839 -10.039,0 -16.563,4.765 -21.66,12.402 l -4.762,-11.465 h -13.363 z m 25.781,-87.707 c -0.488,-6.68 3.5,-10.352 8.437,-10.352 7.149,0 8.106,7.168 8.106,21.977 v 6.055 c 0,15.906 0,24.187 -7.949,24.187 -3.204,0 -5.586,-1.918 -7.168,-3.183 l -1.426,-1.426 v -37.258"
             style="fill:#fee784;fill-opacity:1;fill-rule:nonzero;stroke:none"
             id="path258" />
          <path
             d="M 233.309,654.602 H 222.82 v 18.144 h 10.489 v 8.906 c 0,19.571 9.707,26.739 26.742,26.739 5.094,0 8.922,-0.489 13.043,-0.957 v -19.727 c -1.422,0.313 -3.336,0.625 -4.762,0.625 -6.527,0 -9.242,-2.07 -9.242,-6.836 v -8.75 h 14.004 V 654.602 H 259.09 v -61.77 h -25.781 v 61.77"
             style="fill:#feec9c;fill-opacity:1;fill-rule:nonzero;stroke:none"
             id="path260" />
          <path
             d="m 299.695,642.98 c 0,3.184 -0.175,6.993 -1.269,10.02 -1.289,3.184 -3.36,5.406 -7.481,5.406 -8.609,0 -9.55,-10.484 -9.55,-26.41 0,-17.992 2.855,-23.891 9.55,-23.891 9.063,0 9.864,9.239 9.864,15.297 l 20.039,-2.875 c -1.891,-19.414 -13.047,-29.609 -31.817,-29.609 -23.238,0 -35.328,20.391 -35.328,40.121 0,21.805 12.09,43.602 36.442,43.602 27.382,0 31.503,-23.692 31.503,-31.661 h -21.953"
             style="fill:#fef0b4;fill-opacity:1;fill-rule:nonzero;stroke:none"
             id="path262" />
          <path
             d="m 310.676,642.922 c 5.703,0 10.371,-4.668 10.371,-10.399 0,-5.703 -4.668,-10.39 -10.371,-10.39 -5.746,0 -10.395,4.687 -10.395,10.39 0,5.731 4.649,10.399 10.395,10.399"
             style="fill:#fef5cc;fill-opacity:1;fill-rule:nonzero;stroke:none"
             id="path264" />
          <path
             d="m 811.59,706.164 h 25.785 v -38.047 h 0.309 c 3.671,3.828 10.355,6.524 15.609,6.524 17.832,0 27.383,-17.813 27.383,-40.907 0,-18.304 -7.66,-41.839 -29.297,-41.839 -10.024,0 -16.543,4.765 -21.645,12.402 l -4.765,-11.465 H 811.59 Z m 25.785,-87.707 c -0.473,-6.68 3.496,-10.352 8.434,-10.352 7.152,0 8.125,7.168 8.125,21.977 v 6.055 c 0,15.906 0,24.187 -7.969,24.187 -3.184,0 -5.567,-1.918 -7.164,-3.183 l -1.426,-1.426 v -37.258"
             style="fill:#fde36d;fill-opacity:1;fill-rule:nonzero;stroke:none"
             id="path266" />
          <path
             d="m 865.887,706.164 h 25.785 v -38.047 h 0.308 c 3.653,3.828 10.333,6.524 15.61,6.524 17.808,0 27.363,-17.813 27.363,-40.907 0,-18.304 -7.64,-41.839 -29.277,-41.839 -10.043,0 -16.567,4.765 -21.664,12.402 l -4.762,-11.465 h -13.363 z m 25.785,-87.707 c -0.492,-6.68 3.496,-10.352 8.418,-10.352 7.168,0 8.125,7.168 8.125,21.977 v 6.055 c 0,15.906 0,24.187 -7.953,24.187 -3.203,0 -5.586,-1.918 -7.168,-3.183 l -1.422,-1.426 v -37.258"
             style="fill:#fee784;fill-opacity:1;fill-rule:nonzero;stroke:none"
             id="path268" />
          <path
             d="m 920.887,654.602 h -10.489 v 18.144 h 10.489 v 8.906 c 0,19.571 9.707,26.739 26.742,26.739 5.094,0 8.902,-0.489 13.047,-0.957 v -19.727 c -1.426,0.313 -3.34,0.625 -4.77,0.625 -6.523,0 -9.234,-2.07 -9.234,-6.836 v -8.75 h 14.004 v -18.144 h -14.004 v -61.77 h -25.785 v 61.77"
             style="fill:#feec9c;fill-opacity:1;fill-rule:nonzero;stroke:none"
             id="path270" />
          <path
             d="m 987.273,642.98 c 0,3.184 -0.175,6.993 -1.265,10.02 -1.293,3.184 -3.363,5.406 -7.5,5.406 -8.594,0 -9.535,-10.484 -9.535,-26.41 0,-17.992 2.855,-23.891 9.535,-23.891 9.082,0 9.863,9.239 9.863,15.297 l 20.059,-2.875 c -1.9,-19.414 -13.047,-29.609 -31.821,-29.609 -23.238,0 -35.332,20.391 -35.332,40.121 0,21.805 12.094,43.602 36.446,43.602 27.367,0 31.507,-23.692 31.507,-31.661 h -21.957"
             style="fill:#fef0b4;fill-opacity:1;fill-rule:nonzero;stroke:none"
             id="path272" />
          <path
             d="m 998.254,642.922 c 5.706,0 10.376,-4.668 10.376,-10.399 0,-5.703 -4.67,-10.39 -10.376,-10.39 -5.746,0 -10.395,4.687 -10.395,10.39 0,5.731 4.649,10.399 10.395,10.399"
             style="fill:#fef5cc;fill-opacity:1;fill-rule:nonzero;stroke:none"
             id="path274" />
          <path
             d="m 1042.2,706.164 h 25.8 v -38.047 h 0.31 c 3.67,3.828 10.33,6.524 15.58,6.524 17.84,0 27.39,-17.813 27.39,-40.907 0,-18.304 -7.64,-41.839 -29.28,-41.839 -10.02,0 -16.56,4.765 -21.64,12.402 l -4.78,-11.465 h -13.38 z m 25.8,-87.707 c -0.49,-6.68 3.5,-10.352 8.42,-10.352 7.17,0 8.12,7.168 8.12,21.977 v 6.055 c 0,15.906 0,24.187 -7.97,24.187 -3.16,0 -5.56,-1.918 -7.14,-3.183 l -1.43,-1.426 v -37.258"
             style="fill:#fde36d;fill-opacity:1;fill-rule:nonzero;stroke:none"
             id="path276" />
          <path
             d="m 1096.5,706.164 h 25.77 v -38.047 h 0.32 c 3.67,3.828 10.35,6.524 15.6,6.524 17.83,0 27.36,-17.813 27.36,-40.907 0,-18.304 -7.63,-41.839 -29.27,-41.839 -10.02,0 -16.55,4.765 -21.64,12.402 l -4.79,-11.465 h -13.35 z m 25.77,-87.707 c -0.47,-6.68 3.52,-10.352 8.44,-10.352 7.15,0 8.13,7.168 8.13,21.977 v 6.055 c 0,15.906 0,24.187 -7.97,24.187 -3.19,0 -5.57,-1.918 -7.15,-3.183 l -1.45,-1.426 v -37.258"
             style="fill:#fee784;fill-opacity:1;fill-rule:nonzero;stroke:none"
             id="path278" />
          <path
             d="m 1151.51,654.602 h -10.5 v 18.144 h 10.5 v 8.906 c 0,19.571 9.71,26.739 26.74,26.739 5.08,0 8.91,-0.489 13.05,-0.957 v -19.727 c -1.42,0.313 -3.34,0.625 -4.79,0.625 -6.52,0 -9.21,-2.07 -9.21,-6.836 v -8.75 h 14 v -18.144 h -14 v -61.77 h -25.79 v 61.77"
             style="fill:#feec9c;fill-opacity:1;fill-rule:nonzero;stroke:none"
             id="path280" />
          <path
             d="m 1217.88,642.98 c 0,3.184 -0.16,6.993 -1.27,10.02 -1.27,3.184 -3.34,5.406 -7.48,5.406 -8.59,0 -9.55,-10.484 -9.55,-26.41 0,-17.992 2.87,-23.891 9.55,-23.891 9.06,0 9.87,9.239 9.87,15.297 l 20.05,-2.875 c -1.91,-19.414 -13.07,-29.609 -31.84,-29.609 -23.24,0 -35.33,20.391 -35.33,40.121 0,21.805 12.09,43.602 36.45,43.602 27.38,0 31.52,-23.692 31.52,-31.661 h -21.97"
             style="fill:#fef0b4;fill-opacity:1;fill-rule:nonzero;stroke:none"
             id="path282" />
          <path
             d="m 1228.86,642.922 c 5.72,0 10.39,-4.668 10.39,-10.399 0,-5.703 -4.67,-10.39 -10.39,-10.39 -5.75,0 -10.4,4.687 -10.4,10.39 0,5.731 4.65,10.399 10.4,10.399"
             style="fill:#fef5cc;fill-opacity:1;fill-rule:nonzero;stroke:none"
             id="path284" />
          <path
             d="m 582.391,836.75 h 25.785 v -38.047 h 0.308 c 3.672,3.828 10.356,6.524 15.606,6.524 17.836,0 27.383,-17.813 27.383,-40.899 0,-18.301 -7.633,-41.855 -29.297,-41.855 -10.02,0 -16.543,4.765 -21.637,12.422 L 595.77,723.43 h -13.379 z m 25.785,-87.695 c -0.469,-6.692 3.512,-10.352 8.433,-10.352 7.168,0 8.125,7.168 8.125,21.973 v 6.043 c 0,15.91 0,24.187 -7.968,24.187 -3.164,0 -5.563,-1.91 -7.145,-3.179 l -1.445,-1.438 v -37.234"
             style="fill:#fde36d;fill-opacity:1;fill-rule:nonzero;stroke:none"
             id="path286" />
          <path
             d="m 636.688,836.75 h 25.781 v -38.047 h 0.312 c 3.653,3.828 10.352,6.524 15.606,6.524 17.816,0 27.367,-17.813 27.367,-40.899 0,-18.301 -7.641,-41.855 -29.281,-41.855 -10.039,0 -16.559,4.765 -21.66,12.422 l -4.762,-11.465 h -13.363 z m 25.781,-87.695 c -0.489,-6.692 3.496,-10.352 8.437,-10.352 7.149,0 8.106,7.168 8.106,21.973 v 6.043 c 0,15.91 0,24.187 -7.949,24.187 -3.18,0 -5.563,-1.91 -7.168,-3.179 l -1.426,-1.438 v -37.234"
             style="fill:#fee784;fill-opacity:1;fill-rule:nonzero;stroke:none"
             id="path288" />
          <path
             d="m 691.688,785.188 h -10.485 v 18.132 h 10.485 v 8.918 c 0,19.571 9.707,26.739 26.738,26.739 5.097,0 8.926,-0.489 13.07,-0.957 v -19.739 c -1.445,0.324 -3.363,0.637 -4.785,0.637 -6.527,0 -9.242,-2.07 -9.242,-6.836 v -8.762 h 14.027 V 785.188 H 717.469 V 723.43 h -25.781 v 61.758"
             style="fill:#feec9c;fill-opacity:1;fill-rule:nonzero;stroke:none"
             id="path290" />
          <path
             d="m 758.078,773.566 c 0,3.172 -0.18,6.993 -1.273,10.02 -1.289,3.184 -3.34,5.41 -7.477,5.41 -8.613,0 -9.555,-10.5 -9.555,-26.406 0,-17.988 2.856,-23.887 9.555,-23.887 9.059,0 9.86,9.238 9.86,15.293 l 20.039,-2.871 c -1.891,-19.414 -13.047,-29.609 -31.813,-29.609 -23.242,0 -35.332,20.379 -35.332,40.105 0,21.809 12.09,43.606 36.441,43.606 27.383,0 31.504,-23.704 31.504,-31.661 h -21.949"
             style="fill:#fef0b4;fill-opacity:1;fill-rule:nonzero;stroke:none"
             id="path292" />
          <path
             d="m 769.051,773.508 c 5.707,0 10.375,-4.668 10.375,-10.391 0,-5.715 -4.668,-10.39 -10.375,-10.39 -5.742,0 -10.387,4.675 -10.387,10.39 0,5.723 4.645,10.391 10.387,10.391"
             style="fill:#fef5cc;fill-opacity:1;fill-rule:nonzero;stroke:none"
             id="path294" />
          <path
             d="m 353.215,836.75 h 25.781 v -38.047 h 0.309 c 3.672,3.828 10.351,6.524 15.609,6.524 17.809,0 27.359,-17.813 27.359,-40.899 0,-18.301 -7.636,-41.855 -29.273,-41.855 -10.023,0 -16.566,4.765 -21.645,12.422 L 366.57,723.43 h -13.355 z m 25.781,-87.695 c -0.488,-6.692 3.492,-10.352 8.434,-10.352 7.152,0 8.109,7.168 8.109,21.973 v 6.043 c 0,15.91 0,24.187 -7.949,24.187 -3.188,0 -5.57,-1.91 -7.168,-3.179 l -1.426,-1.438 v -37.234"
             style="fill:#fde36d;fill-opacity:1;fill-rule:nonzero;stroke:none"
             id="path296" />
          <path
             d="m 407.488,836.75 h 25.805 v -38.047 h 0.309 c 3.656,3.828 10.332,6.524 15.586,6.524 17.832,0 27.363,-17.813 27.363,-40.899 0,-18.301 -7.633,-41.855 -29.278,-41.855 -10.015,0 -16.543,4.765 -21.64,12.422 l -4.785,-11.465 h -13.36 z m 25.805,-87.695 c -0.492,-6.692 3.496,-10.352 8.418,-10.352 7.168,0 8.125,7.168 8.125,21.973 v 6.043 c 0,15.91 0,24.187 -7.973,24.187 -3.183,0 -5.562,-1.91 -7.148,-3.179 l -1.422,-1.438 v -37.234"
             style="fill:#fee784;fill-opacity:1;fill-rule:nonzero;stroke:none"
             id="path298" />
          <path
             d="m 462.508,785.188 h -10.504 v 18.132 h 10.504 v 8.918 c 0,19.571 9.707,26.739 26.742,26.739 5.078,0 8.902,-0.489 13.047,-0.957 v -19.739 c -1.426,0.324 -3.34,0.637 -4.77,0.637 -6.543,0 -9.234,-2.07 -9.234,-6.836 v -8.762 h 14.004 V 785.188 H 488.293 V 723.43 h -25.785 v 61.758"
             style="fill:#feec9c;fill-opacity:1;fill-rule:nonzero;stroke:none"
             id="path300" />
          <path
             d="m 528.895,773.566 c 0,3.172 -0.176,6.993 -1.29,10.02 -1.265,3.184 -3.339,5.41 -7.476,5.41 -8.598,0 -9.551,-10.5 -9.551,-26.406 0,-17.988 2.867,-23.887 9.551,-23.887 9.082,0 9.859,9.238 9.859,15.293 l 20.063,-2.871 c -1.918,-19.414 -13.047,-29.609 -31.836,-29.609 -23.227,0 -35.317,20.379 -35.317,40.105 0,21.809 12.09,43.606 36.446,43.606 27.367,0 31.504,-23.704 31.504,-31.661 h -21.953"
             style="fill:#fef0b4;fill-opacity:1;fill-rule:nonzero;stroke:none"
             id="path302" />
          <path
             d="m 539.852,773.508 c 5.726,0 10.394,-4.668 10.394,-10.391 0,-5.715 -4.668,-10.39 -10.394,-10.39 -5.719,0 -10.372,4.675 -10.372,10.39 0,5.723 4.653,10.391 10.372,10.391"
             style="fill:#fef5cc;fill-opacity:1;fill-rule:nonzero;stroke:none"
             id="path304" />
          <path
             d="m 124.012,836.75 h 25.785 v -38.047 h 0.308 c 3.672,3.828 10.356,6.524 15.61,6.524 17.832,0 27.379,-17.813 27.379,-40.899 0,-18.301 -7.633,-41.855 -29.293,-41.855 -10.024,0 -16.543,4.765 -21.645,12.422 l -4.765,-11.465 h -13.379 z m 25.785,-87.695 c -0.469,-6.692 3.512,-10.352 8.433,-10.352 7.153,0 8.125,7.168 8.125,21.973 v 6.043 c 0,15.91 0,24.187 -7.968,24.187 -3.18,0 -5.567,-1.91 -7.149,-3.179 l -1.441,-1.438 v -37.234"
             style="fill:#fde36d;fill-opacity:1;fill-rule:nonzero;stroke:none"
             id="path306" />
          <path
             d="m 178.309,836.75 h 25.781 v -38.047 h 0.312 c 3.653,3.828 10.356,6.524 15.606,6.524 17.812,0 27.367,-17.813 27.367,-40.899 0,-18.301 -7.641,-41.855 -29.281,-41.855 -10.039,0 -16.563,4.765 -21.66,12.422 l -4.762,-11.465 h -13.363 z m 25.781,-87.695 c -0.488,-6.692 3.5,-10.352 8.437,-10.352 7.149,0 8.106,7.168 8.106,21.973 v 6.043 c 0,15.91 0,24.187 -7.949,24.187 -3.204,0 -5.586,-1.91 -7.168,-3.179 l -1.426,-1.438 v -37.234"
             style="fill:#fee784;fill-opacity:1;fill-rule:nonzero;stroke:none"
             id="path308" />
          <path
             d="M 233.309,785.188 H 222.82 v 18.132 h 10.489 v 8.918 c 0,19.571 9.707,26.739 26.742,26.739 5.094,0 8.922,-0.489 13.043,-0.957 v -19.739 c -1.422,0.324 -3.336,0.637 -4.762,0.637 -6.527,0 -9.242,-2.07 -9.242,-6.836 v -8.762 h 14.004 V 785.188 H 259.09 V 723.43 h -25.781 v 61.758"
             style="fill:#feec9c;fill-opacity:1;fill-rule:nonzero;stroke:none"
             id="path310" />
          <path
             d="m 299.695,773.566 c 0,3.172 -0.175,6.993 -1.269,10.02 -1.289,3.184 -3.36,5.41 -7.481,5.41 -8.609,0 -9.55,-10.5 -9.55,-26.406 0,-17.988 2.855,-23.887 9.55,-23.887 9.063,0 9.864,9.238 9.864,15.293 l 20.039,-2.871 c -1.891,-19.414 -13.047,-29.609 -31.817,-29.609 -23.238,0 -35.328,20.379 -35.328,40.105 0,21.809 12.09,43.606 36.442,43.606 27.382,0 31.503,-23.704 31.503,-31.661 h -21.953"
             style="fill:#fef0b4;fill-opacity:1;fill-rule:nonzero;stroke:none"
             id="path312" />
          <path
             d="m 310.676,773.508 c 5.703,0 10.371,-4.668 10.371,-10.391 0,-5.715 -4.668,-10.39 -10.371,-10.39 -5.746,0 -10.395,4.675 -10.395,10.39 0,5.723 4.649,10.391 10.395,10.391"
             style="fill:#fef5cc;fill-opacity:1;fill-rule:nonzero;stroke:none"
             id="path314" />
          <path
             d="m 811.59,836.75 h 25.785 v -38.047 h 0.309 c 3.671,3.828 10.355,6.524 15.609,6.524 17.832,0 27.383,-17.813 27.383,-40.899 0,-18.301 -7.66,-41.855 -29.297,-41.855 -10.024,0 -16.543,4.765 -21.645,12.422 L 824.969,723.43 H 811.59 Z m 25.785,-87.695 c -0.473,-6.692 3.496,-10.352 8.434,-10.352 7.152,0 8.125,7.168 8.125,21.973 v 6.043 c 0,15.91 0,24.187 -7.969,24.187 -3.184,0 -5.567,-1.91 -7.164,-3.179 l -1.426,-1.438 v -37.234"
             style="fill:#fde36d;fill-opacity:1;fill-rule:nonzero;stroke:none"
             id="path316" />
          <path
             d="m 865.887,836.75 h 25.785 v -38.047 h 0.308 c 3.653,3.828 10.333,6.524 15.61,6.524 17.808,0 27.363,-17.813 27.363,-40.899 0,-18.301 -7.64,-41.855 -29.277,-41.855 -10.043,0 -16.567,4.765 -21.664,12.422 L 879.25,723.43 h -13.363 z m 25.785,-87.695 c -0.492,-6.692 3.496,-10.352 8.418,-10.352 7.168,0 8.125,7.168 8.125,21.973 v 6.043 c 0,15.91 0,24.187 -7.953,24.187 -3.203,0 -5.586,-1.91 -7.168,-3.179 l -1.422,-1.438 v -37.234"
             style="fill:#fee784;fill-opacity:1;fill-rule:nonzero;stroke:none"
             id="path318" />
          <path
             d="m 920.887,785.188 h -10.489 v 18.132 h 10.489 v 8.918 c 0,19.571 9.707,26.739 26.742,26.739 5.094,0 8.902,-0.489 13.047,-0.957 v -19.739 c -1.426,0.324 -3.34,0.637 -4.77,0.637 -6.523,0 -9.234,-2.07 -9.234,-6.836 v -8.762 h 14.004 V 785.188 H 946.672 V 723.43 h -25.785 v 61.758"
             style="fill:#feec9c;fill-opacity:1;fill-rule:nonzero;stroke:none"
             id="path320" />
          <path
             d="m 987.273,773.566 c 0,3.172 -0.175,6.993 -1.265,10.02 -1.293,3.184 -3.363,5.41 -7.5,5.41 -8.594,0 -9.535,-10.5 -9.535,-26.406 0,-17.988 2.855,-23.887 9.535,-23.887 9.082,0 9.863,9.238 9.863,15.293 l 20.059,-2.871 c -1.9,-19.414 -13.047,-29.609 -31.821,-29.609 -23.238,0 -35.332,20.379 -35.332,40.105 0,21.809 12.094,43.606 36.446,43.606 27.367,0 31.507,-23.704 31.507,-31.661 h -21.957"
             style="fill:#fef0b4;fill-opacity:1;fill-rule:nonzero;stroke:none"
             id="path322" />
          <path
             d="m 998.254,773.508 c 5.706,0 10.376,-4.668 10.376,-10.391 0,-5.715 -4.67,-10.39 -10.376,-10.39 -5.746,0 -10.395,4.675 -10.395,10.39 0,5.723 4.649,10.391 10.395,10.391"
             style="fill:#fef5cc;fill-opacity:1;fill-rule:nonzero;stroke:none"
             id="path324" />
          <path
             d="m 1042.2,836.75 h 25.8 v -38.047 h 0.31 c 3.67,3.828 10.33,6.524 15.58,6.524 17.84,0 27.39,-17.813 27.39,-40.899 0,-18.301 -7.64,-41.855 -29.28,-41.855 -10.02,0 -16.56,4.765 -21.64,12.422 l -4.78,-11.465 h -13.38 z m 25.8,-87.695 c -0.49,-6.692 3.5,-10.352 8.42,-10.352 7.17,0 8.12,7.168 8.12,21.973 v 6.043 c 0,15.91 0,24.187 -7.97,24.187 -3.16,0 -5.56,-1.91 -7.14,-3.179 l -1.43,-1.438 v -37.234"
             style="fill:#fde36d;fill-opacity:1;fill-rule:nonzero;stroke:none"
             id="path326" />
          <path
             d="m 1096.5,836.75 h 25.77 v -38.047 h 0.32 c 3.67,3.828 10.35,6.524 15.6,6.524 17.83,0 27.36,-17.813 27.36,-40.899 0,-18.301 -7.63,-41.855 -29.27,-41.855 -10.02,0 -16.55,4.765 -21.64,12.422 l -4.79,-11.465 h -13.35 z m 25.77,-87.695 c -0.47,-6.692 3.52,-10.352 8.44,-10.352 7.15,0 8.13,7.168 8.13,21.973 v 6.043 c 0,15.91 0,24.187 -7.97,24.187 -3.19,0 -5.57,-1.91 -7.15,-3.179 l -1.45,-1.438 v -37.234"
             style="fill:#fee784;fill-opacity:1;fill-rule:nonzero;stroke:none"
             id="path328" />
          <path
             d="m 1151.51,785.188 h -10.5 v 18.132 h 10.5 v 8.918 c 0,19.571 9.71,26.739 26.74,26.739 5.08,0 8.91,-0.489 13.05,-0.957 v -19.739 c -1.42,0.324 -3.34,0.637 -4.79,0.637 -6.52,0 -9.21,-2.07 -9.21,-6.836 v -8.762 h 14 v -18.132 h -14 V 723.43 h -25.79 v 61.758"
             style="fill:#feec9c;fill-opacity:1;fill-rule:nonzero;stroke:none"
             id="path330" />
          <path
             d="m 1217.88,773.566 c 0,3.172 -0.16,6.993 -1.27,10.02 -1.27,3.184 -3.34,5.41 -7.48,5.41 -8.59,0 -9.55,-10.5 -9.55,-26.406 0,-17.988 2.87,-23.887 9.55,-23.887 9.06,0 9.87,9.238 9.87,15.293 l 20.05,-2.871 c -1.91,-19.414 -13.07,-29.609 -31.84,-29.609 -23.24,0 -35.33,20.379 -35.33,40.105 0,21.809 12.09,43.606 36.45,43.606 27.38,0 31.52,-23.704 31.52,-31.661 h -21.97"
             style="fill:#fef0b4;fill-opacity:1;fill-rule:nonzero;stroke:none"
             id="path332" />
          <path
             d="m 1228.86,773.508 c 5.72,0 10.39,-4.668 10.39,-10.391 0,-5.715 -4.67,-10.39 -10.39,-10.39 -5.75,0 -10.4,4.675 -10.4,10.39 0,5.723 4.65,10.391 10.4,10.391"
             style="fill:#fef5cc;fill-opacity:1;fill-rule:nonzero;stroke:none"
             id="path334" />
          <path
             d="m 582.391,967.336 h 25.785 v -38.047 h 0.308 c 3.672,3.828 10.356,6.524 15.606,6.524 17.836,0 27.383,-17.825 27.383,-40.899 0,-18.301 -7.633,-41.855 -29.297,-41.855 -10.02,0 -16.543,4.765 -21.637,12.421 l -4.769,-11.464 h -13.379 z m 25.785,-87.695 c -0.469,-6.692 3.512,-10.352 8.433,-10.352 7.168,0 8.125,7.168 8.125,21.973 v 6.043 c 0,15.91 0,24.191 -7.968,24.191 -3.164,0 -5.563,-1.914 -7.145,-3.183 l -1.445,-1.446 v -37.226"
             style="fill:#fde36d;fill-opacity:1;fill-rule:nonzero;stroke:none"
             id="path336" />
          <path
             d="m 636.688,967.336 h 25.781 v -38.047 h 0.312 c 3.653,3.828 10.352,6.524 15.606,6.524 17.816,0 27.367,-17.825 27.367,-40.899 0,-18.301 -7.641,-41.855 -29.281,-41.855 -10.039,0 -16.559,4.765 -21.66,12.421 l -4.762,-11.464 h -13.363 z m 25.781,-87.695 c -0.489,-6.692 3.496,-10.352 8.437,-10.352 7.149,0 8.106,7.168 8.106,21.973 v 6.043 c 0,15.91 0,24.191 -7.949,24.191 -3.18,0 -5.563,-1.914 -7.168,-3.183 l -1.426,-1.446 v -37.226"
             style="fill:#fee784;fill-opacity:1;fill-rule:nonzero;stroke:none"
             id="path338" />
          <path
             d="m 691.688,915.773 h -10.485 v 18.125 h 10.485 v 8.926 c 0,19.571 9.707,26.727 26.738,26.727 5.097,0 8.926,-0.477 13.07,-0.946 v -19.738 c -1.445,0.324 -3.363,0.637 -4.785,0.637 -6.527,0 -9.242,-2.07 -9.242,-6.836 v -8.77 h 14.027 v -18.125 h -14.027 v -61.757 h -25.781 v 61.757"
             style="fill:#feec9c;fill-opacity:1;fill-rule:nonzero;stroke:none"
             id="path340" />
          <path
             d="m 758.078,904.152 c 0,3.172 -0.18,6.993 -1.273,10.02 -1.289,3.183 -3.34,5.41 -7.477,5.41 -8.613,0 -9.555,-10.508 -9.555,-26.418 0,-17.976 2.856,-23.875 9.555,-23.875 9.059,0 9.86,9.227 9.86,15.293 l 20.039,-2.871 c -1.891,-19.414 -13.047,-29.609 -31.813,-29.609 -23.242,0 -35.332,20.371 -35.332,40.097 0,21.817 12.09,43.614 36.441,43.614 27.383,0 31.504,-23.704 31.504,-31.661 h -21.949"
             style="fill:#fef0b4;fill-opacity:1;fill-rule:nonzero;stroke:none"
             id="path342" />
          <path
             d="m 769.051,904.094 c 5.707,0 10.375,-4.668 10.375,-10.391 0,-5.715 -4.668,-10.402 -10.375,-10.402 -5.742,0 -10.387,4.687 -10.387,10.402 0,5.723 4.645,10.391 10.387,10.391"
             style="fill:#fef5cc;fill-opacity:1;fill-rule:nonzero;stroke:none"
             id="path344" />
          <path
             d="m 353.215,967.336 h 25.781 v -38.047 h 0.309 c 3.672,3.828 10.351,6.524 15.609,6.524 17.809,0 27.359,-17.825 27.359,-40.899 0,-18.301 -7.636,-41.855 -29.273,-41.855 -10.023,0 -16.566,4.765 -21.645,12.421 l -4.785,-11.464 h -13.355 z m 25.781,-87.695 c -0.488,-6.692 3.492,-10.352 8.434,-10.352 7.152,0 8.109,7.168 8.109,21.973 v 6.043 c 0,15.91 0,24.191 -7.949,24.191 -3.188,0 -5.57,-1.914 -7.168,-3.183 l -1.426,-1.446 v -37.226"
             style="fill:#fde36d;fill-opacity:1;fill-rule:nonzero;stroke:none"
             id="path346" />
          <path
             d="m 407.488,967.336 h 25.805 v -38.047 h 0.309 c 3.656,3.828 10.332,6.524 15.586,6.524 17.832,0 27.363,-17.825 27.363,-40.899 0,-18.301 -7.633,-41.855 -29.278,-41.855 -10.015,0 -16.543,4.765 -21.64,12.421 l -4.785,-11.464 h -13.36 z m 25.805,-87.695 c -0.492,-6.692 3.496,-10.352 8.418,-10.352 7.168,0 8.125,7.168 8.125,21.973 v 6.043 c 0,15.91 0,24.191 -7.973,24.191 -3.183,0 -5.562,-1.914 -7.148,-3.183 l -1.422,-1.446 v -37.226"
             style="fill:#fee784;fill-opacity:1;fill-rule:nonzero;stroke:none"
             id="path348" />
          <path
             d="m 462.508,915.773 h -10.504 v 18.125 h 10.504 v 8.926 c 0,19.571 9.707,26.727 26.742,26.727 5.078,0 8.902,-0.477 13.047,-0.946 v -19.738 c -1.426,0.324 -3.34,0.637 -4.77,0.637 -6.543,0 -9.234,-2.07 -9.234,-6.836 v -8.77 h 14.004 v -18.125 h -14.004 v -61.757 h -25.785 v 61.757"
             style="fill:#feec9c;fill-opacity:1;fill-rule:nonzero;stroke:none"
             id="path350" />
          <path
             d="m 528.895,904.152 c 0,3.172 -0.176,6.993 -1.29,10.02 -1.265,3.183 -3.339,5.41 -7.476,5.41 -8.598,0 -9.551,-10.508 -9.551,-26.418 0,-17.976 2.867,-23.875 9.551,-23.875 9.082,0 9.859,9.227 9.859,15.293 l 20.063,-2.871 c -1.918,-19.414 -13.047,-29.609 -31.836,-29.609 -23.227,0 -35.317,20.371 -35.317,40.097 0,21.817 12.09,43.614 36.446,43.614 27.367,0 31.504,-23.704 31.504,-31.661 h -21.953"
             style="fill:#fef0b4;fill-opacity:1;fill-rule:nonzero;stroke:none"
             id="path352" />
          <path
             d="m 539.852,904.094 c 5.726,0 10.394,-4.668 10.394,-10.391 0,-5.715 -4.668,-10.402 -10.394,-10.402 -5.719,0 -10.372,4.687 -10.372,10.402 0,5.723 4.653,10.391 10.372,10.391"
             style="fill:#fef5cc;fill-opacity:1;fill-rule:nonzero;stroke:none"
             id="path354" />
          <path
             d="m 811.59,967.336 h 25.785 v -38.047 h 0.309 c 3.671,3.828 10.355,6.524 15.609,6.524 17.832,0 27.383,-17.825 27.383,-40.899 0,-18.301 -7.66,-41.855 -29.297,-41.855 -10.024,0 -16.543,4.765 -21.645,12.421 l -4.765,-11.464 H 811.59 Z m 25.785,-87.695 c -0.473,-6.692 3.496,-10.352 8.434,-10.352 7.152,0 8.125,7.168 8.125,21.973 v 6.043 c 0,15.91 0,24.191 -7.969,24.191 -3.184,0 -5.567,-1.914 -7.164,-3.183 l -1.426,-1.446 v -37.226"
             style="fill:#fde36d;fill-opacity:1;fill-rule:nonzero;stroke:none"
             id="path356" />
          <path
             d="m 865.887,967.336 h 25.785 v -38.047 h 0.308 c 3.653,3.828 10.333,6.524 15.61,6.524 17.808,0 27.363,-17.825 27.363,-40.899 0,-18.301 -7.64,-41.855 -29.277,-41.855 -10.043,0 -16.567,4.765 -21.664,12.421 l -4.762,-11.464 h -13.363 z m 25.785,-87.695 c -0.492,-6.692 3.496,-10.352 8.418,-10.352 7.168,0 8.125,7.168 8.125,21.973 v 6.043 c 0,15.91 0,24.191 -7.953,24.191 -3.203,0 -5.586,-1.914 -7.168,-3.183 l -1.422,-1.446 v -37.226"
             style="fill:#fee784;fill-opacity:1;fill-rule:nonzero;stroke:none"
             id="path358" />
          <path
             d="m 920.887,915.773 h -10.489 v 18.125 h 10.489 v 8.926 c 0,19.571 9.707,26.727 26.742,26.727 5.094,0 8.902,-0.477 13.047,-0.946 v -19.738 c -1.426,0.324 -3.34,0.637 -4.77,0.637 -6.523,0 -9.234,-2.07 -9.234,-6.836 v -8.77 h 14.004 v -18.125 h -14.004 v -61.757 h -25.785 v 61.757"
             style="fill:#feec9c;fill-opacity:1;fill-rule:nonzero;stroke:none"
             id="path360" />
          <path
             d="m 987.273,904.152 c 0,3.172 -0.175,6.993 -1.265,10.02 -1.293,3.183 -3.363,5.41 -7.5,5.41 -8.594,0 -9.535,-10.508 -9.535,-26.418 0,-17.976 2.855,-23.875 9.535,-23.875 9.082,0 9.863,9.227 9.863,15.293 l 20.059,-2.871 c -1.9,-19.414 -13.047,-29.609 -31.821,-29.609 -23.238,0 -35.332,20.371 -35.332,40.097 0,21.817 12.094,43.614 36.446,43.614 27.367,0 31.507,-23.704 31.507,-31.661 h -21.957"
             style="fill:#fef0b4;fill-opacity:1;fill-rule:nonzero;stroke:none"
             id="path362" />
          <path
             d="m 998.254,904.094 c 5.706,0 10.376,-4.668 10.376,-10.391 0,-5.715 -4.67,-10.402 -10.376,-10.402 -5.746,0 -10.395,4.687 -10.395,10.402 0,5.723 4.649,10.391 10.395,10.391"
             style="fill:#fef5cc;fill-opacity:1;fill-rule:nonzero;stroke:none"
             id="path364" />
        </g>
      </g>
      <path
         d="M 611.711,279.777 H 557.02 V 149.98 h -89.415 v 363.829 h 144.106 c 20.969,0 39.426,-3.856 55.258,-10.625 l 29.41,-44.688 21.941,0.891 c 11.594,-18.664 17.551,-40.461 17.551,-62.59 0,-59.793 -43.418,-117.02 -124.16,-117.02 z m -4.082,153.809 H 557.02 V 360 h 50.609 c 24.508,0 38.828,17.883 38.828,36.797 0,18.906 -14.32,36.789 -38.828,36.789"
         style="fill:#231f20;fill-opacity:1;fill-rule:nonzero;stroke:none"
         id="path366" />
      <path
         d="m 958.68,187.793 c -31.172,-32.188 -65.918,-40.879 -105.782,-40.879 -42.421,0 -74.605,14.316 -101.171,40.879 -38.34,38.32 -36.797,89.434 -36.797,144.102 0,54.687 -1.543,105.781 36.797,144.101 26.566,26.582 57.23,40.879 101.171,40.879 93.52,0 133.36,-60.801 142.055,-120.586 h -89.945 c -7.149,27.598 -21.445,40.879 -52.11,40.879 -16.347,0 -28.609,-7.148 -35.253,-15.84 -8.18,-10.742 -13.301,-23.008 -13.301,-89.433 0,-66.426 5.121,-79.2 13.301,-89.942 6.644,-8.672 18.906,-15.312 35.253,-15.312 18.907,0 31.684,5.605 39.864,14.297 10.215,10.214 13.789,25.039 13.789,38.847 v 5.098 h -53.653 v 74.609 h 142.563 v -50.586 c 0,-58.769 -9.203,-93.008 -36.781,-121.113"
         style="fill:#231f20;fill-opacity:1;fill-rule:nonzero;stroke:none"
         id="path368" />
      <path
         d="M 583.359,308.125 H 528.68 V 178.32 h -89.422 v 363.828 h 144.101 c 80.743,0 124.168,-57.226 124.168,-117.011 0,-59.785 -43.425,-117.012 -124.168,-117.012 z m -4.082,153.809 H 528.68 V 388.34 h 50.597 c 24.524,0 38.836,17.89 38.836,36.797 0,18.906 -14.312,36.797 -38.836,36.797"
         style="fill:#ffffff;fill-opacity:1;fill-rule:nonzero;stroke:none"
         id="path370" />
      <path
         d="m 930.332,216.145 c -31.172,-32.2 -65.918,-40.879 -105.781,-40.879 -42.414,0 -74.598,14.304 -101.172,40.879 -38.328,38.32 -36.797,89.421 -36.797,144.101 0,54.676 -1.531,105.77 36.797,144.102 26.574,26.57 57.226,40.879 101.172,40.879 93.515,0 133.359,-60.813 142.051,-120.598 h -89.93 c -7.152,27.598 -21.457,40.879 -52.121,40.879 -16.348,0 -28.613,-7.149 -35.254,-15.84 -8.172,-10.73 -13.289,-22.988 -13.289,-89.422 0,-66.437 5.117,-79.211 13.289,-89.933 6.641,-8.692 18.906,-15.333 35.254,-15.333 18.906,0 31.687,5.618 39.863,14.309 10.215,10.215 13.801,25.039 13.801,38.836 v 5.109 h -53.664 v 74.598 h 142.558 v -50.586 c 0,-58.758 -9.199,-92.996 -36.777,-121.101"
         style="fill:#ffffff;fill-opacity:1;fill-rule:nonzero;stroke:none"
         id="path372" />
    </g>
  </g>
</svg>
